<?xml version="1.0" encoding="utf-8"?>
<!-- Generator: Adobe Illustrator 23.0.1, SVG Export Plug-In . SVG Version: 6.00 Build 0)  -->
<svg version="1.1" id="Слой_1" xmlns="http://www.w3.org/2000/svg" xmlns:xlink="http://www.w3.org/1999/xlink" x="0px" y="0px"
	 viewBox="0 0 160 160" style="enable-background:new 0 0 160 160;" xml:space="preserve">
<style type="text/css">
	.st0{clip-path:url(#SVGID_2_);}
	.st1{fill:#00A4B5;}
	.st2{fill:#FFCC00;}
	.st3{fill:#FFFFFF;}
	.st4{fill-rule:evenodd;clip-rule:evenodd;fill:#FFCC00;}
</style>
<g>
	<defs>
		<rect id="SVGID_1_" y="0" width="160" height="160"/>
	</defs>
	<clipPath id="SVGID_2_">
		<use xlink:href="#SVGID_1_"  style="overflow:visible;"/>
	</clipPath>
	<g class="st0">
		<path class="st1" d="M80,160c44.2,0,80-35.8,80-80c0-44.2-35.8-80-80-80C35.8,0,0,35.8,0,80C0,124.2,35.8,160,80,160z"/>
		<path class="st2" d="M13.6,94.7c0.2-0.3,0.5-0.9,0.9-1.6c0.4-0.7,0.8-1.5,1.3-2.2c0,0,0-0.1,0.1-0.1c0,0,0-0.1,0.1-0.1
			c0.4-0.7,0.8-1.3,1.1-1.9c0.4-0.6,0.7-1.1,0.9-1.5c0.2-0.2,0.4-0.6,0.7-1.1c0.3-0.5,0.7-1,1.1-1.5c0.1-0.1,0.1-0.1,0.2-0.2
			c0.1-0.1,0.1-0.2,0.2-0.2c0.5-0.6,1-1.2,1.4-1.7c0.5-0.5,0.8-0.8,1-0.8c0,0,0.1,0,0.1,0c0.1,0,0.1,0,0.2,0.1
			c0.1,0.1,0.3,0.2,0.4,0.3c0.1,0.2,0.3,0.3,0.3,0.5c0,0.1,0.1,0.2,0.1,0.3c0,0.1,0.1,0.2,0.1,0.3c0,0,0,0,0,0c0,0,0,0,0,0
			c0,0.2,0,0.4-0.1,0.7c-0.1,0.3-0.3,0.8-0.6,1.5c-1.1,2.9-1.8,4.9-2,6s-0.3,1.9-0.2,2.3c0.1,0.2,0.1,0.4,0.3,0.6
			c0.1,0.1,0.2,0.2,0.3,0.3c0,0,0.1,0,0.1,0c0,0,0.1,0,0.1,0c0.1,0,0.1,0,0.2,0c0,0,0.1,0,0.2,0c0,0,0.1,0,0.1,0c0,0,0,0,0.1,0
			c0,0,0.1,0,0.1,0c0,0,0,0,0.1,0c0,0,0,0,0.1,0c0,0,0,0,0.1,0c0.2-0.1,0.4-0.3,0.7-0.6c0.2-0.2,0.5-0.5,0.7-0.8
			c0.1-0.1,0.2-0.2,0.2-0.3c0.1-0.1,0.1-0.2,0.2-0.2c0,0,0,0,0,0c0,0,0,0,0,0c0,0,0,0,0,0c0,0,0,0,0,0c0,0,0.1-0.1,0.1-0.1
			c0,0,0,0,0.1-0.1c0,0,0,0,0,0c0,0,0,0,0,0c0,0,0,0,0,0s0,0,0,0c0,0,0,0,0,0c0,0,0.1,0,0.1,0c0,0,0.1,0,0.1,0.1c0,0,0,0,0,0.1
			c0,0,0,0,0,0.1c0,0.1,0,0.1-0.1,0.2c0,0.1-0.1,0.2-0.2,0.3c0,0,0,0.1-0.1,0.1c0,0,0,0,0,0.1c-0.1,0.1-0.2,0.2-0.2,0.3
			c-0.1,0.1-0.1,0.2-0.1,0.2c-1,1.4-1.8,2.4-2.4,2.8c-0.6,0.4-1,0.7-1.3,0.8c-0.1,0-0.1,0-0.2,0c-0.1,0-0.2,0-0.3,0
			c-0.2,0-0.4-0.1-0.6-0.3s-0.4-0.5-0.4-0.8c-0.2-1-0.1-2.3,0.5-4.1c0.5-1.8,1.2-3.8,1.9-6c0,0,0-0.1,0-0.1c0,0,0-0.1,0-0.1
			c0,0,0,0,0-0.1c0,0,0,0,0-0.1c0,0,0-0.1,0-0.1c0,0,0-0.1,0-0.1c0-0.1-0.1-0.1-0.1-0.1c-0.1,0-0.2,0-0.2,0c-0.2,0-0.4,0.2-0.7,0.5
			c-0.3,0.3-0.6,0.6-0.9,1c-0.1,0.1-0.1,0.1-0.2,0.2c-0.1,0.1-0.1,0.1-0.2,0.2c-0.3,0.3-0.5,0.6-0.7,0.9c-0.2,0.3-0.4,0.5-0.5,0.7
			c-0.5,0.8-1.1,1.8-1.8,3.1c-0.7,1.2-1.4,2.7-2.2,4.4c-0.2,0.4-0.3,0.7-0.4,0.9c-0.1,0.2-0.2,0.3-0.3,0.3c0,0-0.1,0-0.1,0.1
			c0,0-0.1,0-0.1,0c0,0-0.1,0-0.1,0c0,0-0.1,0-0.1,0c0,0-0.1,0-0.1,0c0,0-0.1,0-0.1,0c0,0-0.1,0-0.1,0c0,0-0.1,0-0.1,0
			c-0.2,0-0.4,0-0.5-0.1c-0.1-0.1-0.2-0.4-0.4-1.1c0,0,0,0,0,0c0,0,0,0,0,0c-0.1-0.3-0.1-0.9-0.2-1.7c-0.1-0.8,0.2-1.7,0.7-2.7
			c0,0,0-0.1,0-0.1c0,0,0,0,0,0c0.1-0.2,0.2-0.4,0.5-0.6c0.2-0.2,0.4-0.3,0.7-0.5c0.2-0.1,0.5-0.3,0.7-0.4c0.2-0.1,0.4-0.2,0.5-0.2
			c0,0,0,0,0,0c0,0,0,0,0,0c0,0,0.1,0,0.1,0s0,0,0,0c0,0,0,0,0,0c0,0,0,0,0,0c0,0.1-0.1,0.2-0.2,0.4c-0.1,0.2-0.3,0.5-0.5,1.1
			c0,0.1-0.1,0.2-0.1,0.3c0,0.2-0.1,0.3-0.1,0.6c0,0.3-0.1,0.5-0.1,0.8C13.5,94.1,13.5,94.4,13.6,94.7L13.6,94.7z M25.3,87
			c0-0.1-0.1-0.2-0.1-0.4c0-0.1-0.1-0.2-0.1-0.3c-0.1-0.4-0.1-0.8-0.1-1.1c0-0.3,0.1-0.6,0.1-0.8c0.1-0.2,0.1-0.3,0.2-0.4
			c0.1-0.1,0.1-0.2,0.1-0.2c0.1-0.2,0.4-0.5,0.9-0.9c0.4-0.4,0.9-0.9,1.5-1.3c0.3-0.2,0.5-0.4,0.8-0.7c0.3-0.2,0.6-0.4,0.8-0.6
			c0.6-0.4,1.1-0.8,1.7-1.1c0.6-0.3,1.1-0.5,1.5-0.6c0.3-0.1,0.5-0.1,0.7,0c0.2,0.1,0.3,0.3,0.3,0.6c0,0.1,0,0.1,0,0.2
			c0,0.1,0,0.1,0,0.2c0,0.3,0,0.5-0.1,0.8c-0.1,0.3-0.2,0.6-0.3,1c-0.7,2.1-1.3,3.7-1.8,4.8c-0.5,1-0.9,1.9-1,2.7c0,0.1,0,0.1,0,0.2
			c0,0.1,0,0.1,0,0.2c0,0,0,0.1,0,0.1c0,0,0,0.1,0,0.1c0,0,0,0.1,0,0.1c0,0,0,0.1,0,0.1c0,0,0,0.1,0,0.1c0,0,0,0.1,0.1,0.1
			c0,0,0.1,0,0.2,0c0.1,0,0.1,0,0.2,0c0.2,0,0.6-0.4,1.2-1c0.7-0.6,1.8-2.3,3.4-5c0-0.1,0.1-0.1,0.1-0.2c0-0.1,0.1-0.1,0.1-0.2
			c0,0,0-0.1,0-0.1c0,0,0,0,0,0c0.2-0.3,0.4-0.7,0.6-1.1c0.2-0.4,0.6-0.9,1-1.6c0.1,0,0.1,0,0.2,0c0.1,0,0.1,0,0.2,0.1
			c0.1,0.1,0.2,0.1,0.4,0.2c0.1,0.1,0.2,0.2,0.3,0.3c0,0,0,0.1,0.1,0.1c0,0,0,0.1,0,0.1c0,0,0,0,0,0c0,0,0,0,0,0.1c0,0,0,0.1,0,0.1
			c0,0,0,0.1-0.1,0.1c-0.4,1-0.8,1.9-1.1,2.7c-0.3,0.8-0.6,1.6-0.9,2.4c-0.2,0.6-0.4,1.2-0.5,1.9c-0.2,0.6-0.3,1.3-0.5,2
			c-0.1,0.4-0.1,0.8-0.2,1.2c-0.1,0.4-0.1,0.9-0.2,1.3c0.1-0.1,0.2-0.3,0.3-0.4c0.1-0.1,0.2-0.3,0.3-0.4c0.2-0.2,0.3-0.3,0.5-0.5
			c0.2-0.2,0.3-0.3,0.5-0.5c0.3-0.3,0.5-0.5,0.8-0.7c0.3-0.2,0.5-0.3,0.7-0.4c0,0,0.1,0,0.1,0c0,0,0,0,0.1,0c0,0,0,0,0,0
			c0,0,0,0,0,0c0,0,0.1,0,0.1-0.1c0,0,0.1,0,0.1,0c0,0,0.1,0,0.1,0c0,0,0,0,0,0c0,0.1-0.1,0.3-0.4,0.7c-0.3,0.3-0.9,1.1-1.8,2.3
			c-1.3,1.8-2.1,3.1-2.4,4c-0.3,0.8-0.5,1.3-0.8,1.4c-0.1,0-0.2,0-0.3,0c-0.1,0-0.2,0-0.3-0.1c-0.1-0.1-0.2-0.1-0.3-0.2
			c-0.1-0.1-0.2-0.2-0.3-0.4c0-0.7,0-1.5,0.2-2.6c0.2-1,0.7-2.7,1.4-4.9c0.5-1.6,0.8-2.6,0.9-3c0.1-0.4,0.1-0.6,0.1-0.6
			c0-0.1-0.3,0.3-0.7,1c-0.5,0.8-1.1,1.7-1.7,2.6c-0.2,0.2-0.3,0.5-0.5,0.7c-0.2,0.2-0.3,0.5-0.5,0.7c-0.2,0.2-0.4,0.5-0.6,0.7
			c-0.2,0.2-0.4,0.4-0.6,0.6c0,0.1-0.1,0.2-0.2,0.2s-0.1,0.1-0.2,0.2c-0.1,0-0.1,0.1-0.2,0.1c-0.1,0-0.1,0.1-0.2,0.1
			c-0.2,0.1-0.5,0-0.7,0c-0.2-0.1-0.4-0.2-0.6-0.4c0,0-0.1-0.1-0.1-0.1c0,0,0-0.1-0.1-0.1c-0.1-0.3,0-0.9,0.2-1.6
			c0.2-0.7,0.4-1.5,0.7-2.3c0.1-0.2,0.1-0.3,0.2-0.5c0.1-0.2,0.1-0.3,0.2-0.5c0.2-0.6,0.4-1.1,0.7-1.6c0.2-0.5,0.4-0.9,0.6-1.3
			c0.1-0.1,0.1-0.3,0.2-0.5c0.1-0.2,0.2-0.4,0.3-0.6c0-0.1,0-0.2,0.1-0.3c0-0.1,0.1-0.2,0.1-0.3c0.1-0.4,0.2-0.7,0.3-1
			c0.1-0.3,0.1-0.6,0.1-0.7c0-0.1,0-0.1-0.1-0.1c0,0-0.1,0-0.2,0c-0.2,0.1-0.7,0.3-1.3,0.8c-0.6,0.5-1.2,1-1.8,1.6
			c-0.1,0.1-0.2,0.1-0.2,0.2c-0.1,0.1-0.1,0.1-0.2,0.2c-0.6,0.6-1.2,1.1-1.7,1.6C25.7,86.5,25.4,86.9,25.3,87L25.3,87z M51.1,80.8
			c-0.2,0.3-0.4,0.5-0.7,0.8c-0.2,0.3-0.5,0.6-0.7,0.8c-0.5,0.7-1.1,1.3-1.6,1.9c-0.5,0.6-1.1,1-1.6,1.1c-0.2,0-0.4,0-0.6-0.1
			c-0.2-0.1-0.4-0.3-0.5-0.4c-0.1-0.1-0.1-0.2-0.2-0.3c0-0.1-0.1-0.2-0.1-0.2c0-0.2,0-0.4,0-0.6c0-0.2,0.1-0.4,0.1-0.7
			c0-0.2,0.1-0.3,0.2-0.5c0.1-0.2,0.1-0.3,0.2-0.5c0.1-0.2,0.2-0.4,0.3-0.6c0.1-0.2,0.2-0.3,0.2-0.4c0.3-0.6,0.6-1.1,0.7-1.5
			c0.2-0.4,0.3-0.7,0.2-0.9c0,0,0,0,0,0c0,0,0,0,0-0.1c-0.1-0.1-0.2-0.2-0.4-0.2c-0.2,0-0.4,0-0.6,0c-0.2,0-0.4,0.1-0.6,0.2
			c-0.2,0.1-0.4,0.1-0.6,0.2c-0.7,0.3-1.4,0.7-2,1.2c-0.6,0.5-1,1-1.2,1.6c0.1,0,0.2,0,0.3,0c0.1,0,0.2,0,0.3,0
			c0.2,0,0.3,0.1,0.4,0.1c0.1,0,0.2,0.1,0.3,0.1L40.1,83c0,0,0,0,0,0c0,0,0,0,0,0c0,0,0,0,0,0c0,0,0,0,0,0c0,0-0.1,0-0.1,0
			c0,0-0.1,0-0.1,0c-0.1,0-0.1,0-0.2-0.1c-0.1-0.1-0.1-0.2-0.2-0.3c-0.1-0.3-0.1-0.6,0-0.9c0.1-0.3,0.2-0.7,0.4-1.1
			c0.4-0.8,1.2-1.7,2.3-2.5c1.1-0.9,2.5-1.5,4.4-1.9c0.8-0.2,1.3-0.2,1.6-0.1c0.3,0.1,0.4,0.4,0.5,0.7c0.1,0.3,0,0.7-0.1,1.2
			c-0.2,0.5-0.3,0.9-0.6,1.5c0,0.1-0.1,0.2-0.1,0.3c0,0.1-0.1,0.3-0.1,0.4c0,0.2-0.1,0.3-0.1,0.5c0,0.2-0.1,0.3-0.1,0.5
			c-0.1,0.3-0.1,0.6-0.1,0.8c0,0.3,0,0.5,0,0.7c0,0,0,0,0,0.1c0,0,0,0,0,0.1c0,0.1,0,0.1,0.1,0.2c0,0.1,0.1,0.1,0.1,0.1
			c0.1,0,0.2-0.1,0.4-0.2c0.2-0.1,0.4-0.3,0.6-0.4c0.1-0.1,0.2-0.1,0.3-0.2c0.1-0.1,0.2-0.1,0.2-0.2s0.1-0.1,0.2-0.2
			c0.1-0.1,0.1-0.1,0.2-0.2c1.7-1.7,2.7-3.1,3.1-4.2c0.4-1.1,0.8-1.6,1-1.7c0,0,0.1,0,0.1,0c0,0,0.1,0,0.1,0c0.1,0,0.2,0.1,0.3,0.2
			c0.1,0.1,0.2,0.1,0.2,0.2c0,0.1,0.1,0.1,0.1,0.2c0,0,0.1,0.1,0.1,0.1c0,0.2,0,0.4-0.1,0.6c-0.1,0.2-0.3,0.6-0.6,1.1
			c-0.1,0.2-0.2,0.4-0.3,0.6c-0.1,0.2-0.2,0.4-0.3,0.6c-0.7,1.5-1.3,2.9-1.6,4.2c-0.4,1.3-0.5,2.4-0.3,3.2c0.1,0.3,0.2,0.5,0.3,0.7
			c0.1,0.2,0.3,0.3,0.4,0.4c0,0,0.1,0,0.1,0c0,0,0.1,0,0.1,0c0.1,0,0.3-0.1,0.4-0.2c0.2-0.1,0.4-0.3,0.5-0.5c0.1,0,0.1-0.1,0.2-0.1
			c0,0,0.1-0.1,0.1-0.1c0.2-0.2,0.3-0.3,0.5-0.5c0.1-0.2,0.2-0.3,0.3-0.3c0.2-0.2,0.3-0.3,0.4-0.4c0.1-0.1,0.1-0.1,0.2-0.1
			c0.1,0,0.1,0,0.2,0c0.1,0,0.1,0,0.1,0.1c0,0.1,0,0.1,0,0.2c0,0.1-0.1,0.2-0.1,0.3c0,0,0,0.1-0.1,0.1c0,0,0,0.1-0.1,0.1
			c-0.1,0.1-0.1,0.2-0.2,0.3c-0.1,0.1-0.1,0.1-0.1,0.2c0,0.1-0.2,0.3-0.4,0.5c-0.2,0.3-0.4,0.6-0.7,0.9c-0.1,0.1-0.2,0.2-0.3,0.3
			c-0.1,0.1-0.2,0.2-0.3,0.3c-0.2,0.2-0.4,0.4-0.7,0.6c-0.2,0.2-0.4,0.3-0.6,0.3c0,0,0,0,0,0s0,0,0,0c-0.3,0-0.6-0.1-1-0.3
			c-0.3-0.2-0.6-0.5-0.7-0.8c0,0,0-0.1,0-0.1c0,0,0-0.1,0-0.1c-0.1-0.5-0.1-1-0.1-1.6c0.1-0.6,0.2-1.2,0.3-1.9
			c0.1-0.3,0.1-0.5,0.2-0.8c0.1-0.3,0.2-0.5,0.2-0.8c0.1-0.5,0.3-0.9,0.4-1.4C50.9,81.6,51,81.1,51.1,80.8L51.1,80.8z M59,85
			c-0.5,1-0.9,1.6-1.2,2c-0.3,0.3-0.6,0.5-0.8,0.6c0,0-0.1,0-0.1,0c0,0-0.1,0-0.1,0c-0.3-0.1-0.6-0.3-0.9-0.7
			c-0.3-0.4-0.5-0.8-0.6-1.3c0-0.1-0.1-0.3-0.1-0.4s0-0.3,0-0.5c0-0.5,0.1-1.1,0.3-1.6c0.2-0.5,0.4-1,0.7-1.4
			c0.2-0.3,0.4-0.6,0.6-0.9c0.2-0.2,0.4-0.4,0.5-0.5c0,0,0,0,0.1,0c0,0,0,0,0.1,0c0,0,0,0,0,0c0,0,0,0,0,0c0.1,0,0.1,0,0.1,0
			c0,0,0.1,0,0.2,0c0,0,0,0,0,0c0,0,0,0,0,0c0.1,0,0.3,0,0.4,0c0.1,0,0.2,0.1,0.2,0.3c0,0.1,0,0.3,0,0.5c-0.1,0.2-0.1,0.4-0.3,0.7
			c-0.1,0.2-0.2,0.4-0.4,0.6c-0.1,0.2-0.3,0.4-0.4,0.6c-0.2,0.2-0.4,0.4-0.5,0.6c-0.2,0.2-0.3,0.3-0.5,0.3c0,0,0,0.1,0,0.2
			c0,0.1,0,0.2,0,0.2c0,0,0,0.1,0,0.1c0,0,0,0.1,0,0.1c0,0.1,0,0.2,0,0.3c0,0.1,0,0.2,0,0.2c0,0,0,0,0,0.1c0,0,0,0,0,0
			c0,0.1,0.1,0.2,0.2,0.3c0.1,0.1,0.2,0.1,0.3,0.1c0.1,0,0.4-0.3,0.7-0.7c0.3-0.4,0.7-0.9,1-1.4c0-0.1,0.1-0.1,0.1-0.2
			c0-0.1,0.1-0.1,0.1-0.2c0.4-0.5,0.7-1,1-1.4c0.3-0.4,0.4-0.7,0.5-0.8c0.1-0.3,0.2-0.4,0.3-0.5c0-0.1,0.1-0.1,0.1-0.2
			c0,0,0-0.1,0.1-0.1c0,0,0.1-0.1,0.1-0.3c0,0,0-0.1,0.1-0.1c0,0,0-0.1,0.1-0.1c0-0.1,0.1-0.1,0.1-0.2c0-0.1,0.1-0.1,0.1-0.1
			c0,0,0.1-0.1,0.1-0.1c0,0,0.1,0,0.1,0c0,0,0.1,0,0.1,0c0,0,0.1,0,0.1,0c0.1,0,0.2,0.1,0.3,0.2c0.1,0.1,0.2,0.2,0.2,0.3
			c0,0,0,0.1,0,0.1c0,0,0,0,0,0.1c0,0.2,0,0.4,0,0.5c0,0.2-0.1,0.3-0.2,0.5c0,0.1-0.1,0.1-0.1,0.2c0,0.1-0.1,0.1-0.1,0.2
			c0,0,0,0,0,0.1c0,0,0,0-0.1,0.1c-0.4,0.7-0.8,1.3-1.1,1.9c-0.3,0.6-0.4,1-0.3,1.3c0,0,0,0,0,0c0,0,0,0,0,0c0,0.1,0.1,0.1,0.1,0.2
			c0.1,0.1,0.1,0.1,0.2,0.1c0,0,0,0,0,0c0,0,0,0,0,0c0.1,0,0.3-0.1,0.5-0.3c0.2-0.2,0.4-0.4,0.6-0.7c0,0,0.1-0.1,0.1-0.1
			c0,0,0.1-0.1,0.1-0.1c0.1-0.1,0.2-0.2,0.3-0.4c0.1-0.1,0.2-0.2,0.3-0.3c0.3-0.4,0.6-0.8,0.9-1.2c0.3-0.4,0.5-0.8,0.8-1.3
			c0.1-0.2,0.2-0.4,0.3-0.6c0.1-0.2,0.2-0.4,0.3-0.7c0-0.1,0.1-0.1,0.2-0.2c0.1-0.1,0.1-0.1,0.2-0.1c0.2,0,0.3,0,0.4,0.1
			c0.1,0.1,0.2,0.2,0.3,0.3c0,0,0.1,0.1,0.1,0.2c0,0.1,0,0.1,0,0.1c0,0.1,0,0.2,0,0.3c0,0.1-0.1,0.2-0.2,0.3c0,0,0,0.1-0.1,0.1
			c0,0,0,0,0,0.1c-0.1,0.1-0.2,0.3-0.3,0.5c-0.1,0.2-0.3,0.4-0.4,0.7c-0.1,0.2-0.2,0.3-0.3,0.5c-0.1,0.2-0.2,0.4-0.2,0.5
			c-0.1,0.2-0.2,0.5-0.2,0.7c0,0.2,0,0.4,0,0.6c0.1,0.3,0.2,0.4,0.3,0.5c0.1,0.1,0.3,0.2,0.4,0.2c0.1,0,0.1,0,0.2,0
			c0.1,0,0.1,0,0.1,0c0.1,0,0.2-0.1,0.3-0.1c0.1-0.1,0.2-0.1,0.2-0.2c0.1-0.1,0.2-0.1,0.2-0.2c0.1-0.1,0.1-0.2,0.2-0.2
			c0.1-0.1,0.1-0.2,0.2-0.2c0.1-0.1,0.1-0.1,0.1-0.2c0.1-0.1,0.2-0.2,0.2-0.3c0-0.1,0.1-0.1,0.1-0.1c0,0,0,0,0,0s0,0,0,0
			c0.1,0,0.1,0,0.2,0c0.1,0,0.1,0,0.1,0.1c0,0.1,0,0.3-0.1,0.6c-0.1,0.3-0.3,0.6-0.5,1c-0.1,0.2-0.2,0.4-0.4,0.6
			c-0.1,0.2-0.3,0.4-0.4,0.5c-0.2,0.2-0.5,0.5-0.7,0.6c-0.2,0.2-0.4,0.3-0.6,0.3c-0.1,0-0.1,0-0.2,0c-0.1,0-0.2,0-0.2,0
			c-0.2,0-0.4-0.1-0.6-0.2c-0.2-0.1-0.3-0.4-0.4-0.8c0-0.1,0-0.2-0.1-0.3c0-0.1,0-0.3,0-0.4c0-0.1,0-0.2,0-0.3c0-0.1,0-0.2,0-0.3
			c0,0,0,0,0-0.1c0,0,0,0,0-0.1c-0.1,0.2-0.1,0.3-0.2,0.5c-0.1,0.2-0.2,0.4-0.3,0.6c-0.1,0.2-0.2,0.3-0.3,0.5
			c-0.1,0.2-0.2,0.3-0.3,0.5c-0.2,0.2-0.3,0.3-0.5,0.5c-0.2,0.1-0.3,0.2-0.5,0.3c0,0,0,0,0,0c0,0,0,0,0,0c-0.3,0-0.5-0.1-0.8-0.4
			c-0.3-0.3-0.5-0.6-0.6-1.1c0-0.1,0-0.1,0-0.2C59,85.1,59,85,59,85L59,85z"/>
		<path class="st2" d="M71.4,81.6c-0.1,0.2-0.2,0.3-0.3,0.5c-0.1,0.2-0.2,0.4-0.3,0.6c-0.1,0.2-0.2,0.4-0.3,0.5
			c-0.1,0.2-0.2,0.3-0.4,0.5c-0.2,0.3-0.4,0.5-0.6,0.7c-0.2,0.2-0.4,0.3-0.6,0.4c-0.3,0.1-0.7-0.1-1-0.6c-0.3-0.5-0.6-1.1-0.8-1.8
			c-0.1-0.2-0.1-0.5,0-0.9c0-0.3,0.1-0.7,0.2-1.1c0.1-0.4,0.3-0.8,0.4-1.2c0.2-0.4,0.4-0.7,0.6-1c0.2-0.2,0.3-0.4,0.5-0.6
			c0.2-0.2,0.4-0.3,0.5-0.3c0.2,0,0.4,0,0.6,0c0.2,0.1,0.3,0.1,0.3,0.2c0,0.1,0,0.3-0.1,0.6c-0.1,0.3-0.2,0.5-0.4,0.8
			c-0.1,0.2-0.2,0.3-0.3,0.5c-0.1,0.2-0.2,0.3-0.3,0.5c-0.1,0.1-0.2,0.3-0.3,0.4c-0.1,0.1-0.2,0.2-0.3,0.3c0,0-0.1,0-0.1,0.1
			c0,0,0,0-0.1,0.1c0,0,0,0,0,0c0,0-0.1,0.1-0.1,0.1c0,0-0.1,0.1-0.1,0.1c0,0.1,0,0.2,0,0.3c0,0.1,0,0.2,0,0.3
			c0.1,0.3,0.2,0.5,0.3,0.6c0.2,0.2,0.3,0.2,0.5,0.2c0.1,0,0.2-0.1,0.3-0.2c0.1-0.1,0.2-0.2,0.4-0.4c0.1-0.1,0.3-0.3,0.4-0.5
			c0.1-0.2,0.3-0.4,0.5-0.8l2.7-4.2c0,0,0,0,0,0c0,0,0,0,0,0c0,0,0-0.1,0.1-0.1c0,0,0.1-0.1,0.1-0.1c0,0,0.1,0,0.1,0
			c0,0,0.1,0,0.1,0.1c0.1,0,0.2,0.1,0.3,0.3c0.1,0.1,0.2,0.4,0.2,0.7c0,0,0,0.1,0,0.1c0,0,0,0.1,0,0.1c0,0,0,0.1,0,0.1
			c0,0,0,0.1,0,0.1c0,0,0,0,0,0c0,0,0,0,0,0l-1.3,2.3c0,0-0.1,0.1-0.1,0.1c0,0,0,0.1-0.1,0.2c-0.1,0.2-0.1,0.4-0.2,0.6
			c0,0.2,0,0.5,0,0.7c0,0.2,0.1,0.4,0.2,0.5c0.1,0.1,0.3,0.2,0.4,0.2c0.1,0,0.2-0.1,0.3-0.1s0.2-0.2,0.4-0.3
			c0.1-0.1,0.1-0.1,0.2-0.2c0.1-0.1,0.1-0.1,0.2-0.2c0,0,0.1-0.1,0.1-0.1c0,0,0.1-0.1,0.1-0.1c0,0,0,0,0.1-0.1c0,0,0.1-0.1,0.1-0.2
			c0.1-0.1,0.1-0.1,0.2-0.2c0-0.1,0.1-0.1,0.1-0.1c0,0,0,0,0,0c0,0,0,0,0,0c0,0,0.1,0,0.1,0c0,0,0,0,0,0.1c0,0.1-0.1,0.3-0.3,0.6
			c-0.2,0.3-0.4,0.7-0.7,1.1c-0.1,0.1-0.2,0.3-0.3,0.4c-0.1,0.1-0.2,0.3-0.3,0.4c-0.2,0.3-0.5,0.6-0.7,0.8c-0.3,0.2-0.5,0.3-0.7,0.4
			c0,0,0,0,0,0c0,0,0,0,0,0c-0.2,0-0.4,0-0.6-0.1c-0.2-0.1-0.3-0.4-0.4-0.8c0-0.1-0.1-0.3-0.1-0.5c0-0.2,0-0.4,0-0.6
			c0-0.1,0-0.2,0-0.4c0-0.1,0-0.2,0-0.3C71.4,81.8,71.4,81.7,71.4,81.6C71.4,81.7,71.4,81.6,71.4,81.6L71.4,81.6z M77.3,80.1
			C77.3,80.1,77.3,80.2,77.3,80.1c0,0.1,0,0.1,0,0.2c0,0.1,0,0.1,0.1,0.2c0,0.1,0.1,0.2,0.1,0.2c0.1,0.2,0.3,0.4,0.5,0.5
			c0.2,0.2,0.5,0.2,0.8,0.1c0.1,0,0.2-0.1,0.3-0.1c0.1-0.1,0.2-0.1,0.3-0.2c0.1-0.1,0.2-0.1,0.3-0.2c0.1-0.1,0.2-0.1,0.3-0.2
			c0.1-0.1,0.2-0.2,0.3-0.3c0.1-0.1,0.2-0.2,0.2-0.2c0.4-0.4,0.6-0.7,0.8-0.8c0.1-0.1,0.2-0.2,0.2-0.3c0,0,0,0,0,0c0,0,0,0,0,0
			c0,0,0.1,0,0.1,0c0,0,0.1,0.1,0.1,0.2c0,0.1,0,0.1-0.1,0.3c-0.1,0.1-0.2,0.4-0.4,0.7c-0.1,0.1-0.2,0.3-0.4,0.6
			c-0.2,0.2-0.3,0.5-0.5,0.7c-0.2,0.3-0.4,0.5-0.7,0.8c-0.2,0.2-0.5,0.5-0.8,0.6c-0.1,0.1-0.3,0.2-0.4,0.2c-0.1,0.1-0.3,0.1-0.4,0.2
			c-0.5,0.1-1,0-1.4-0.3c-0.5-0.3-0.8-0.8-1-1.5c-0.1-0.3-0.1-0.6-0.1-0.9c0-0.3,0-0.7,0.1-1c0.2-0.9,0.6-1.8,1.1-2.7
			c0.5-0.9,1.2-1.5,1.9-1.9c0.1-0.1,0.2-0.1,0.4-0.2c0.1,0,0.2-0.1,0.4-0.1c0.3-0.1,0.6-0.1,0.8,0c0.2,0.1,0.3,0.2,0.4,0.3
			c0,0.1,0.1,0.1,0.1,0.2c0,0.1,0,0.1,0,0.2c0,0.2,0,0.4,0,0.7c-0.1,0.3-0.2,0.5-0.3,0.8c-0.2,0.5-0.6,1-1,1.5s-0.9,0.9-1.5,1.3
			c-0.1,0.1-0.2,0.2-0.4,0.2C77.5,80,77.4,80,77.3,80.1L77.3,80.1z M77.1,79.4c0.1-0.1,0.3-0.2,0.5-0.3c0.2-0.1,0.3-0.3,0.5-0.4
			c0.2-0.2,0.4-0.4,0.6-0.6c0.2-0.2,0.3-0.4,0.5-0.7c0.1-0.2,0.2-0.4,0.2-0.5c0.1-0.2,0.1-0.3,0-0.5c0-0.2-0.1-0.3-0.2-0.4
			c-0.1-0.1-0.2-0.1-0.4-0.1c-0.1,0-0.2,0.1-0.3,0.1c-0.1,0.1-0.2,0.1-0.2,0.2c-0.2,0.2-0.4,0.5-0.6,0.9c-0.2,0.4-0.3,0.8-0.4,1.2
			c-0.1,0.2-0.1,0.4-0.1,0.6C77.1,79.1,77.1,79.2,77.1,79.4L77.1,79.4z"/>
		<path class="st3" d="M97.2,79.5l-0.3,0.9c-0.4,1.2-0.7,2.3-1,3.2c-0.3,0.9-0.7,1.4-1.2,1.5c-0.2,0-0.4,0-0.5-0.2
			c-0.1-0.2-0.3-0.3-0.3-0.5c-0.1-0.1-0.1-0.3-0.1-0.4c0-0.1-0.1-0.2-0.1-0.3c-0.2-1.1-0.2-1.9,0-2.5c0.3-0.6,0.6-1,1-1.3
			c0.1-0.1,0.2-0.1,0.3-0.2c0.1-0.1,0.2-0.1,0.3-0.2c0,0,0.1-0.1,0.1-0.1c0,0,0.1-0.1,0.1-0.1c0,0,0,0,0,0c0,0,0,0,0,0
			c0.1,0,0.1-0.1,0.2-0.1c0.1-0.1,0.2-0.1,0.3-0.2c0.1-0.5,0.3-1,0.4-1.5c0.2-0.5,0.3-1,0.5-1.6c-0.6,0.9-1.2,1.6-1.7,2.2
			c-0.5,0.6-0.9,0.9-1.3,1c-0.1,0-0.2,0-0.3,0c-0.1,0-0.3-0.1-0.4-0.2c-0.2-0.1-0.4-0.3-0.6-0.5s-0.4-0.4-0.5-0.6
			c-0.1-0.2-0.2-0.3-0.3-0.5c-0.1-0.2-0.1-0.3-0.2-0.5c-0.1-0.2,0-0.5,0.1-0.8c0.1-0.3,0.3-0.6,0.5-1c0.3-0.5,0.8-1.1,1.3-1.6
			c0.5-0.6,1.1-1.1,1.7-1.5c0.4-0.3,0.8-0.6,1.3-0.8s0.8-0.4,1.2-0.5c0,0,0.1,0,0.1,0c0,0,0.1,0,0.1,0c0.2,0,0.5,0.1,0.7,0.4
			c0.3,0.2,0.5,0.7,0.6,1.4c0,0.2,0.1,0.3,0,0.4c0,0.1,0,0.2,0,0.2c0,0,0,0,0,0c0,0,0,0,0,0c0,0,0,0,0,0c0,0,0,0,0,0l-1.9,5.3l3-2.3
			c0.1,0,0.1-0.1,0.2-0.1c0,0,0.1,0,0.1,0c0.1,0,0.1,0,0.2,0c0,0,0.1,0,0.1,0.1c0,0,0,0,0,0c0,0,0,0,0,0c0,0.1,0,0.1,0,0.1
			c0,0,0,0.1,0,0.1c0,0,0,0.1,0,0.1c0,0,0,0,0,0L97.2,79.5L97.2,79.5z M95.9,80.1c-0.7,0.4-1.2,0.9-1.5,1.6
			c-0.3,0.6-0.3,1.3-0.2,1.9c0,0,0,0,0,0.1c0,0,0,0,0,0c0.2-0.1,0.3-0.2,0.5-0.3c0.1-0.1,0.2-0.3,0.3-0.5c0.1-0.2,0.2-0.5,0.2-0.7
			c0.1-0.3,0.2-0.6,0.3-1L95.9,80.1L95.9,80.1z M93.6,77.4C93.6,77.4,93.6,77.4,93.6,77.4c0.1,0,0.1,0,0.2,0c0,0,0,0,0,0
			c0,0,0,0,0,0c0.2,0,0.4-0.2,0.9-0.6s0.9-0.8,1.3-1.3c0.1-0.2,0.3-0.3,0.4-0.5c0.1-0.2,0.3-0.3,0.4-0.5c0.4-0.5,0.7-0.9,0.9-1.3
			c0.2-0.4,0.3-0.7,0.3-0.9c0,0,0,0,0,0c0,0,0,0,0,0c0,0,0,0-0.1-0.1c0,0-0.1,0-0.1,0c-0.2,0-0.4,0.1-0.7,0.3
			c-0.3,0.2-0.6,0.4-0.9,0.6c-0.1,0.1-0.2,0.1-0.3,0.2c-0.1,0.1-0.2,0.1-0.3,0.2c-0.2,0.2-0.4,0.3-0.6,0.5c-0.2,0.2-0.3,0.3-0.4,0.4
			c-0.4,0.4-0.7,0.8-1,1.2c-0.3,0.4-0.3,0.9-0.2,1.4c0,0.1,0,0.1,0.1,0.2C93.5,77.3,93.5,77.4,93.6,77.4L93.6,77.4z M102.4,74.3
			C102.4,74.4,102.4,74.4,102.4,74.3c0,0.1,0,0.1,0,0.2c0,0.1,0,0.1,0.1,0.2c0,0.1,0.1,0.2,0.1,0.2c0.1,0.2,0.3,0.4,0.5,0.5
			c0.2,0.2,0.5,0.2,0.8,0.1c0.1,0,0.2-0.1,0.3-0.1c0.1-0.1,0.2-0.1,0.3-0.2c0.1-0.1,0.2-0.1,0.3-0.2c0.1-0.1,0.2-0.1,0.3-0.2
			c0.1-0.1,0.2-0.2,0.3-0.3c0.1-0.1,0.2-0.2,0.2-0.2c0.4-0.4,0.6-0.7,0.8-0.8c0.1-0.1,0.2-0.2,0.2-0.3c0,0,0,0,0,0c0,0,0,0,0,0
			c0,0,0.1,0,0.1,0c0,0,0.1,0.1,0.1,0.2c0,0.1,0,0.1-0.1,0.3c-0.1,0.1-0.2,0.4-0.4,0.7c-0.1,0.1-0.2,0.3-0.4,0.6
			c-0.2,0.2-0.3,0.5-0.5,0.7c-0.2,0.3-0.4,0.5-0.7,0.8c-0.2,0.2-0.5,0.5-0.8,0.6c-0.1,0.1-0.3,0.2-0.4,0.2c-0.1,0.1-0.3,0.1-0.4,0.2
			c-0.5,0.1-1,0-1.4-0.3c-0.5-0.3-0.8-0.8-1-1.5c-0.1-0.3-0.1-0.6-0.1-0.9c0-0.3,0-0.7,0.1-1c0.2-0.9,0.6-1.8,1.1-2.7
			c0.5-0.9,1.2-1.5,1.9-1.9c0.1-0.1,0.2-0.1,0.4-0.2c0.1,0,0.2-0.1,0.4-0.1c0.3-0.1,0.6-0.1,0.8,0c0.2,0.1,0.3,0.2,0.4,0.3
			c0,0.1,0.1,0.1,0.1,0.2c0,0.1,0,0.1,0,0.2c0,0.2,0,0.4,0,0.7c-0.1,0.3-0.2,0.5-0.3,0.8c-0.2,0.5-0.6,1-1,1.5
			c-0.5,0.5-0.9,0.9-1.5,1.3c-0.1,0.1-0.2,0.2-0.4,0.2C102.7,74.2,102.5,74.3,102.4,74.3L102.4,74.3z M102.2,73.6
			c0.1-0.1,0.3-0.2,0.5-0.3c0.2-0.1,0.3-0.3,0.5-0.4c0.2-0.2,0.4-0.4,0.6-0.6c0.2-0.2,0.3-0.4,0.5-0.7c0.1-0.2,0.2-0.4,0.2-0.5
			c0.1-0.2,0.1-0.3,0-0.5c0-0.2-0.1-0.3-0.2-0.4c-0.1-0.1-0.2-0.1-0.4-0.1c-0.1,0-0.2,0.1-0.3,0.1c-0.1,0.1-0.2,0.1-0.2,0.2
			c-0.2,0.2-0.4,0.5-0.6,0.9c-0.2,0.4-0.3,0.8-0.4,1.2c-0.1,0.2-0.1,0.4-0.1,0.6C102.3,73.3,102.3,73.5,102.2,73.6L102.2,73.6z
			 M108.5,73.5c0.5-0.7,0.9-1.4,1.2-1.9s0.7-1,1-1.4c0.8-1.1,1.4-1.8,1.7-2c0.3-0.3,0.6-0.4,0.7-0.5c0.2,0,0.4,0,0.5,0
			c0.1,0.1,0.2,0.2,0.2,0.3c0,0,0,0.1,0,0.1c0,0,0,0.1,0,0.1c0,0,0,0,0,0c0,0,0,0,0,0c0,0.1,0,0.2,0,0.3c0,0.1,0,0.2,0,0.3
			c0,0,0,0.1-0.1,0.1c0,0.1,0,0.1,0,0.2c-0.2,0.7-0.4,1.3-0.6,1.6c-0.2,0.3-0.3,0.5-0.3,0.7c0,0,0,0,0,0c0,0,0,0,0,0
			c0,0,0,0.1,0.1,0.1c0,0,0.1,0,0.1,0c0,0,0,0,0,0s0,0,0,0c0.1,0,0.2-0.2,0.4-0.5c0.2-0.3,0.6-0.9,1.3-1.8c0.4-0.5,0.8-1,1.2-1.3
			s0.6-0.6,0.7-0.7c0,0,0,0,0,0c0,0,0,0,0,0c0,0,0.1-0.1,0.2-0.1c0.1,0,0.1-0.1,0.2-0.1c0.1,0,0.2,0,0.3,0.1
			c0.1,0.1,0.2,0.2,0.3,0.4c0.1,0.1,0.1,0.2,0.2,0.3c0,0.1,0.1,0.2,0.1,0.2c0,0.1,0,0.2,0,0.2c0,0.1-0.1,0.2-0.1,0.2c0,0,0,0,0,0
			c0,0,0,0,0,0c-0.5,0.8-0.9,1.4-1,1.9c-0.1,0.5-0.2,0.9-0.1,1.1c0,0.2,0.1,0.3,0.2,0.4c0.1,0.1,0.3,0.1,0.5,0
			c0.1,0,0.3-0.1,0.5-0.3c0.2-0.2,0.5-0.5,0.9-1.1c0,0,0,0,0,0c0,0,0,0,0,0c0,0,0.1-0.1,0.1-0.1c0,0,0.1-0.1,0.1-0.1
			c0,0,0.1,0,0.1,0c0,0,0.1,0,0.1,0c0,0,0,0.1,0,0.1c0,0,0,0.1,0,0.1c0,0.2-0.1,0.4-0.2,0.7c-0.2,0.3-0.4,0.6-0.6,0.9
			c-0.1,0.1-0.2,0.3-0.3,0.4c-0.1,0.1-0.2,0.3-0.4,0.4c-0.3,0.3-0.6,0.7-0.9,0.9c-0.3,0.3-0.5,0.4-0.7,0.4c0,0-0.1,0-0.1,0
			c0,0-0.1,0-0.1,0c-0.2,0-0.4,0-0.6-0.1s-0.3-0.2-0.3-0.5c0-0.2-0.1-0.4-0.1-0.7c0-0.3,0-0.7,0.2-1.2c0.1-0.2,0.1-0.4,0.1-0.5
			c0-0.1,0.1-0.2,0.1-0.3c0,0,0,0,0,0c0,0,0,0,0,0c0,0,0,0,0,0c0,0,0,0,0,0c0.1-0.2,0.1-0.3,0.1-0.4c0-0.1,0-0.2,0-0.2
			c0,0,0-0.1-0.1-0.1c0,0-0.1,0-0.1,0c0,0,0,0,0,0c0,0,0,0,0,0c-0.1,0-0.2,0.1-0.3,0.3c-0.2,0.2-0.3,0.4-0.5,0.6c0,0,0,0-0.1,0.1
			c0,0,0,0-0.1,0.1c-0.2,0.2-0.3,0.4-0.4,0.6c-0.1,0.2-0.2,0.3-0.3,0.4c-0.5,0.7-0.9,1.3-1.2,1.8c-0.3,0.5-0.6,0.7-0.9,0.8
			c0,0-0.1,0-0.1,0c0,0-0.1,0-0.1,0c-0.1,0-0.2-0.1-0.2-0.2c-0.1-0.1-0.2-0.2-0.2-0.4c0-0.1,0-0.2,0-0.3c0-0.1,0-0.2,0-0.3
			c0-0.1,0-0.1,0-0.2c0-0.1,0-0.1,0.1-0.2c0-0.1,0.1-0.2,0.1-0.3c0-0.1,0-0.2,0.1-0.2c0.2-0.5,0.3-0.9,0.4-1.1
			c0.1-0.2,0.1-0.4,0.1-0.6c0,0,0,0,0-0.1c0,0,0,0,0-0.1c0,0-0.1-0.1-0.2-0.1c-0.1,0-0.2,0-0.3,0c-0.3,0.1-0.6,0.3-0.9,0.7
			c-0.3,0.4-0.6,0.9-1,1.5c0,0-0.1,0.1-0.1,0.1c0,0,0,0.1-0.1,0.1c-0.3,0.5-0.5,1-0.6,1.4c-0.1,0.4-0.3,0.7-0.4,0.9c0,0,0,0-0.1,0.1
			c0,0-0.1,0-0.1,0c0,0-0.1,0-0.1,0c-0.1,0-0.1,0-0.2-0.1c-0.1-0.1-0.3-0.2-0.4-0.4c-0.2-0.2-0.3-0.6-0.4-1.2
			c-0.1-0.4-0.1-0.7-0.1-0.9c0-0.2,0-0.5,0.1-0.7c0.1-0.2,0.1-0.4,0.2-0.6c0.1-0.2,0.2-0.5,0.4-0.8c0.1-0.2,0.2-0.3,0.2-0.5
			c0.1-0.2,0.1-0.3,0.2-0.4c0.1-0.3,0.3-0.5,0.5-0.7c0.2-0.2,0.5-0.3,0.8-0.4c0.1,0,0.2,0,0.3,0c0.1,0,0.2,0.1,0.2,0.2c0,0,0,0,0,0
			c0,0,0,0,0,0c0,0,0,0.1,0,0.1c0,0,0,0.1,0,0.1c0,0,0,0.1,0,0.1c0,0.1-0.1,0.1-0.1,0.1c0,0,0,0.1-0.1,0.1c0,0,0,0.1-0.1,0.1
			c0,0.1-0.1,0.2-0.3,0.5c-0.1,0.2-0.3,0.5-0.4,0.8c0,0,0,0.1-0.1,0.1c0,0,0,0.1-0.1,0.1c-0.1,0.3-0.3,0.6-0.4,0.9
			c-0.1,0.3-0.2,0.4-0.1,0.5c0,0,0,0.1,0,0.1c0,0,0,0.1,0.1,0.1c0,0,0,0,0,0c0,0,0,0,0,0C108.5,73.4,108.5,73.4,108.5,73.5
			C108.5,73.5,108.5,73.5,108.5,73.5L108.5,73.5z M111.3,67.9c-0.1-0.1-0.2-0.1-0.2-0.3c-0.1-0.1-0.1-0.3-0.2-0.5
			c-0.1-0.4,0.1-0.9,0.7-1.4c0.5-0.5,1.2-1,1.8-1.4c0.5-0.3,1-0.6,1.5-0.8c0.5-0.2,0.8-0.3,1.1-0.4c0.3-0.1,0.6-0.1,0.8,0
			c0.2,0.1,0.3,0.1,0.4,0.2c0,0,0.1,0.1,0.1,0.1c0,0,0,0.1,0,0.1c0,0,0,0,0,0.1c0,0,0,0,0,0.1l-0.3,1.1c0,0,0,0-0.1,0c0,0,0,0-0.1,0
			c-0.2,0-0.5,0-0.7,0c-0.2,0-0.5,0.1-0.8,0.2c-0.3,0.1-0.6,0.2-0.9,0.3c-0.3,0.2-0.7,0.3-1,0.6c-0.4,0.3-0.8,0.6-1.2,1
			C111.8,67.1,111.5,67.5,111.3,67.9L111.3,67.9z M123.8,69.6c-0.1,0.2-0.2,0.3-0.3,0.5c-0.1,0.2-0.2,0.4-0.3,0.6
			c-0.1,0.2-0.2,0.4-0.3,0.5c-0.1,0.2-0.2,0.3-0.4,0.5c-0.2,0.3-0.4,0.5-0.6,0.7s-0.4,0.3-0.6,0.4c-0.3,0.1-0.7-0.1-1-0.6
			c-0.3-0.5-0.6-1.1-0.8-1.8c-0.1-0.2-0.1-0.5,0-0.9c0-0.3,0.1-0.7,0.2-1.1c0.1-0.4,0.3-0.8,0.4-1.2c0.2-0.4,0.4-0.7,0.6-1
			c0.2-0.2,0.3-0.4,0.5-0.6c0.2-0.2,0.4-0.3,0.5-0.3c0.2,0,0.4,0,0.6,0c0.2,0.1,0.3,0.1,0.3,0.2c0,0.1,0,0.3-0.1,0.6
			c-0.1,0.3-0.2,0.5-0.4,0.8c-0.1,0.2-0.2,0.3-0.3,0.5c-0.1,0.2-0.2,0.3-0.3,0.5c-0.1,0.1-0.2,0.3-0.3,0.4c-0.1,0.1-0.2,0.2-0.3,0.3
			c0,0-0.1,0-0.1,0.1c0,0,0,0-0.1,0.1c0,0,0,0,0,0c0,0-0.1,0.1-0.1,0.1c0,0-0.1,0.1-0.1,0.1c0,0.1,0,0.2,0,0.3c0,0.1,0,0.2,0,0.3
			c0.1,0.3,0.2,0.5,0.3,0.6c0.2,0.2,0.3,0.2,0.5,0.2c0.1,0,0.2-0.1,0.3-0.2c0.1-0.1,0.2-0.2,0.4-0.4c0.1-0.1,0.3-0.3,0.4-0.5
			c0.1-0.2,0.3-0.4,0.5-0.8l2.7-4.2c0,0,0,0,0,0c0,0,0,0,0,0c0,0,0-0.1,0.1-0.1c0,0,0.1-0.1,0.1-0.1c0,0,0.1,0,0.1,0
			c0,0,0.1,0,0.1,0.1c0.1,0,0.2,0.1,0.3,0.3c0.1,0.1,0.2,0.4,0.2,0.7c0,0,0,0.1,0,0.1c0,0,0,0.1,0,0.1c0,0,0,0.1,0,0.1
			c0,0,0,0.1,0,0.1c0,0,0,0,0,0c0,0,0,0,0,0l-1.3,2.3c0,0-0.1,0.1-0.1,0.1c0,0-0.1,0.1-0.1,0.2c-0.1,0.2-0.1,0.4-0.2,0.6
			c0,0.2,0,0.5,0,0.7c0,0.2,0.1,0.4,0.2,0.5c0.1,0.1,0.3,0.2,0.4,0.2c0.1,0,0.2-0.1,0.3-0.1s0.2-0.2,0.4-0.3
			c0.1-0.1,0.1-0.1,0.2-0.2c0.1-0.1,0.1-0.1,0.2-0.2c0,0,0.1-0.1,0.1-0.1c0,0,0.1-0.1,0.1-0.1c0,0,0,0,0.1-0.1c0,0,0.1-0.1,0.1-0.2
			c0.1-0.1,0.1-0.1,0.2-0.2c0.1-0.1,0.1-0.1,0.1-0.1c0,0,0,0,0,0c0,0,0,0,0,0c0,0,0.1,0,0.1,0c0,0,0,0,0,0.1c0,0.1-0.1,0.3-0.3,0.6
			c-0.2,0.3-0.4,0.7-0.7,1.1c-0.1,0.1-0.2,0.3-0.3,0.4c-0.1,0.1-0.2,0.3-0.3,0.4c-0.2,0.3-0.5,0.6-0.7,0.8c-0.3,0.2-0.5,0.3-0.7,0.4
			c0,0,0,0,0,0c0,0,0,0,0,0c-0.2,0-0.4,0-0.6-0.1c-0.2-0.1-0.3-0.4-0.4-0.8c0-0.1-0.1-0.3-0.1-0.5c0-0.2,0-0.4,0-0.6
			c0-0.1,0-0.2,0-0.4s0-0.2,0-0.3C123.8,69.8,123.8,69.8,123.8,69.6C123.8,69.7,123.8,69.7,123.8,69.6L123.8,69.6z"/>
		<path class="st4" d="M108.6,101.1c-2.6-0.2-5.2-0.7-7.7-1.5l-17.1,44.6c-1.2,0.1-2.5,0.1-3.7,0.1c-0.9,0-1.8,0-2.8-0.1l20.5-46
			c-2.4-1.2-4.6-2.6-6.5-4.4L50.3,137c-2-1-3.9-2.2-5.8-3.4l44.3-42.1c-1.8-2-3.2-4.2-4.4-6.5l-1.3-3.1c-0.9-2.5-1.4-5.1-1.5-7.7
			v-3.4c0.2-2.6,0.7-5.2,1.5-7.7L19.9,38.7l0.7-1c1-1.4,2.1-2.8,3.2-4.1l0.5-0.6l60.1,26.8c1.2-2.4,2.6-4.6,4.4-6.6L47.9,14.5
			l1.3-0.6c1.4-0.7,2.9-1.3,4.3-1.9l0.6-0.2l37.1,39c2-1.8,4.2-3.2,6.6-4.4L80.2,7.1l1.5,0c1.4,0,2.7,0.1,4.1,0.2l0.6,0l14.5,37.9
			c2.5-0.9,5.1-1.4,7.7-1.5l-0.8-31.2l1.4,0.6c1,0.4,2,0.9,3,1.4l0.5,0.3l-0.8,28.9c2.6,0.2,5.2,0.7,7.7,1.5l7.9-20.5l1,0.9
			c0.7,0.6,1.4,1.2,2,1.9l0.5,0.5l-8.3,18.6c2.4,1.2,4.6,2.6,6.5,4.4l11.1-11.7l0.7,1c0.4,0.7,0.9,1.3,1.3,2l0.4,0.6l-11,10.5
			c1.8,2,3.2,4.2,4.4,6.5l12.2-5.4l0.3,1c0.2,0.7,0.5,1.4,0.7,2.1l0.3,0.9L137.4,63c0.9,2.5,1.4,5.1,1.5,7.7l13.4-0.3l0.1,0.9
			c0.1,0.7,0.2,1.5,0.2,2.2l0.1,1.1L139,74.1c-0.2,2.6-0.7,5.2-1.5,7.7l15.1,5.8l-0.1,0.7c-0.1,0.8-0.2,1.6-0.3,2.4L152,92L136.1,85
			c-1.2,2.4-2.6,4.6-4.4,6.6l9.3,8.8c-0.5,1.4-1,2.8-1.6,4.2l-10.1-10.6c-2,1.8-4.2,3.2-6.6,4.4l8.9,20c-1,1.4-2.1,2.8-3.3,4.1
			l-8.7-22.8c-2.5,0.9-5.1,1.4-7.7,1.5l0.9,34.2c-1.7,1-3.4,1.9-5.2,2.8L108.6,101.1L108.6,101.1z M110.3,96.9
			c13.5,0,24.5-11,24.5-24.5s-11-24.5-24.5-24.5s-24.5,11-24.5,24.5S96.7,96.9,110.3,96.9z"/>
		<path class="st3" d="M15.4,112.8l-2.5,1.1l-0.6-1.4l1.3-0.6l-2.4-5.3l6.4-2.9l0.7,1.5l-5.2,2.3l1.3,2.8l5.2-2.3l0.7,1.5l-5.2,2.3
			L15.4,112.8z M19.1,119.3l-1.1,0.6l-2.7-4.7l6-3.5l2.6,4.6l-1.1,0.6l-1.8-3.2l-1.3,0.8l1.6,2.8l-1.1,0.6l-1.6-2.8l-1.4,0.8
			L19.1,119.3L19.1,119.3z M28.7,122.7l-5.5,4.3l-1-1.3l2.2-1.8l-2-2.5l-2.2,1.8l-1-1.3l5.5-4.3l1,1.3l-2.2,1.7l2,2.5l2.2-1.7
			L28.7,122.7L28.7,122.7z M32.8,129.2l-1.5-1.6l-4.1,3.9l-1.1-1.2l4.1-3.9l-1.5-1.6l1-0.9l4.2,4.4L32.8,129.2L32.8,129.2z
			 M37.2,131.2c0.5,0.4,0.8,0.8,1,1.3c0.2,0.5,0.3,0.9,0.2,1.4c-0.1,0.4-0.3,0.9-0.6,1.3c-0.3,0.4-0.7,0.6-1.2,0.8
			c-0.4,0.1-0.9,0.1-1.4,0c-0.5-0.1-0.9-0.4-1.4-0.8l-1.1-0.9l-1.3,1.5l-1.2-1.1l4.6-5.3L37.2,131.2L37.2,131.2z M34.7,134
			c0.4,0.3,0.7,0.5,1,0.5c0.3,0,0.6-0.1,0.9-0.4c0.3-0.3,0.4-0.6,0.3-0.9c-0.1-0.3-0.3-0.6-0.6-1l-1-0.9l-1.6,1.8L34.7,134L34.7,134
			z M44.9,143.6l-1.5,2.3l-1.3-0.8l0.8-1.2l-4.1-2.7l-0.8,1.2l-1.3-0.8l1.5-2.3l0.2,0.2c0.4,0.2,0.8,0.1,1.2-0.3
			c0.5-0.4,1-1.1,1.6-2l1.2-1.8l4.5,2.9l-3.1,4.8L44.9,143.6L44.9,143.6z M42.5,138.1c-0.5,0.7-0.9,1.2-1.3,1.6
			c-0.4,0.4-0.8,0.7-1.1,0.8l2.6,1.7l2.3-3.7l-2-1.3L42.5,138.1L42.5,138.1z M51.7,146.7l-0.5,1.2l-4.9-2.2l2.9-6.4l4.8,2.2
			l-0.5,1.2l-3.3-1.5l-0.6,1.4l3,1.3l-0.5,1.1l-3-1.3l-0.7,1.5L51.7,146.7L51.7,146.7z M60.3,145.2l-2.1-0.7l-1.8,5.4l-1.5-0.5
			l1.8-5.4l-2.1-0.7L55,142l5.7,2L60.3,145.2L60.3,145.2z M63.6,152c-0.7-0.2-1.3-0.5-1.8-0.9c-0.5-0.4-0.8-0.9-1-1.6
			c-0.2-0.6-0.2-1.2-0.1-1.9s0.5-1.2,0.9-1.7c0.4-0.5,1-0.8,1.6-0.9c0.6-0.2,1.3-0.2,2,0c0.6,0.1,1.1,0.4,1.5,0.7
			c0.4,0.3,0.8,0.7,1,1.2l-1.2,0.7c-0.3-0.6-0.8-1-1.5-1.2c-0.4-0.1-0.8-0.1-1.2,0c-0.4,0.1-0.7,0.3-1,0.6c-0.3,0.3-0.4,0.6-0.5,1.1
			c-0.1,0.4-0.1,0.8,0,1.2c0.1,0.4,0.3,0.7,0.6,1c0.3,0.3,0.6,0.4,1.1,0.5c0.7,0.2,1.3,0,1.9-0.4l0.8,1.2c-0.4,0.3-0.9,0.5-1.4,0.6
			C64.7,152.2,64.2,152.2,63.6,152L63.6,152z M71.6,150.5l-1.1-0.1l-0.3,2.8l-1.6-0.2l0.9-6.9l1.6,0.2l-0.4,2.8l1.1,0.1l2.2-2.6
			l1.7,0.2l-2.7,3.1l1.9,3.9l-1.8-0.2L71.6,150.5L71.6,150.5z M80.1,153.9c-0.7,0-1.4-0.1-2-0.4c-0.6-0.3-1.1-0.7-1.4-1.3
			c-0.3-0.5-0.5-1.2-0.5-1.8c0-0.7,0.1-1.3,0.4-1.9c0.3-0.6,0.8-1,1.3-1.3c0.6-0.3,1.2-0.5,1.9-0.5c0.7,0,1.4,0.1,2,0.4
			c0.6,0.3,1.1,0.7,1.4,1.3c0.3,0.5,0.5,1.2,0.5,1.8c0,0.7-0.1,1.3-0.4,1.9c-0.3,0.6-0.8,1-1.3,1.3
			C81.4,153.7,80.8,153.9,80.1,153.9L80.1,153.9z M80,152.5c0.4,0,0.8-0.1,1.1-0.3c0.3-0.2,0.6-0.5,0.8-0.8c0.2-0.3,0.3-0.7,0.3-1.2
			c0-0.4-0.1-0.8-0.3-1.1c-0.2-0.3-0.5-0.6-0.8-0.8c-0.3-0.2-0.7-0.3-1.1-0.3c-0.4,0-0.8,0.1-1.1,0.3c-0.3,0.2-0.6,0.5-0.8,0.8
			c-0.2,0.3-0.3,0.7-0.3,1.2c0,0.4,0.1,0.8,0.3,1.1c0.2,0.3,0.5,0.6,0.8,0.8C79.2,152.5,79.6,152.5,80,152.5L80,152.5z M90.4,147.3
			l-3.3,0.4l0.7,5.6l-1.6,0.2l-0.9-6.9l4.9-0.6L90.4,147.3L90.4,147.3z M95.8,152.2c-0.7,0.2-1.4,0.2-2,0c-0.6-0.2-1.2-0.5-1.6-1
			c-0.4-0.5-0.7-1-0.9-1.7c-0.2-0.7-0.1-1.3,0.1-1.9c0.2-0.6,0.5-1.1,1-1.6c0.5-0.4,1.1-0.7,1.8-0.9c0.7-0.2,1.4-0.2,2,0
			c0.6,0.2,1.2,0.5,1.6,1c0.4,0.5,0.7,1,0.9,1.7c0.2,0.7,0.1,1.3-0.1,1.9c-0.2,0.6-0.5,1.1-1,1.6C97.1,151.7,96.5,152,95.8,152.2
			L95.8,152.2z M95.5,150.9c0.4-0.1,0.7-0.3,1-0.5c0.3-0.3,0.5-0.6,0.6-0.9c0.1-0.4,0.1-0.8,0-1.2c-0.1-0.4-0.3-0.8-0.5-1.1
			c-0.3-0.3-0.6-0.5-0.9-0.6c-0.4-0.1-0.7-0.1-1.2,0c-0.4,0.1-0.7,0.3-1,0.5c-0.3,0.3-0.5,0.6-0.6,0.9c-0.1,0.4-0.1,0.8,0,1.2
			c0.1,0.4,0.3,0.8,0.5,1.1c0.3,0.3,0.6,0.5,0.9,0.6C94.7,150.9,95.1,150.9,95.5,150.9L95.5,150.9z M103.7,142.5
			c0.6-0.2,1.1-0.3,1.6-0.3c0.5,0,0.9,0.2,1.3,0.4c0.4,0.3,0.6,0.6,0.8,1.1c0.2,0.5,0.2,0.9,0.2,1.4c-0.1,0.4-0.3,0.8-0.7,1.2
			c-0.3,0.4-0.8,0.6-1.4,0.9l-1.3,0.5l0.7,1.8l-1.5,0.6l-2.6-6.5L103.7,142.5L103.7,142.5z M105,146c0.5-0.2,0.8-0.4,0.9-0.7
			c0.2-0.3,0.2-0.6,0-1c-0.1-0.4-0.4-0.6-0.7-0.7c-0.3-0.1-0.7-0.1-1.1,0.1l-1.2,0.5l0.9,2.3L105,146L105,146z M114.3,143.7
			l-2.9,1.5l0.1,1.6l-1.5,0.8l-0.4-7.6l1.4-0.7l6,4.8l-1.5,0.8L114.3,143.7L114.3,143.7z M113.3,142.8l-2.2-1.9l0.2,2.9L113.3,142.8
			L113.3,142.8z M120.1,137.6c0.4-0.1,0.8-0.1,1.2,0c0.4,0.1,0.6,0.4,0.8,0.7c0.2,0.4,0.3,0.7,0.2,1.2c-0.1,0.4-0.3,0.8-0.6,1.2
			c-0.3,0.4-0.7,0.7-1.2,1.1c-0.4,0.3-0.8,0.5-1.3,0.6c-0.5,0.2-0.9,0.2-1.4,0.3l-0.2-1.2c0.4,0,0.7-0.1,1.1-0.2
			c0.4-0.1,0.7-0.3,1-0.5c0.4-0.3,0.7-0.5,0.9-0.9c0.2-0.3,0.2-0.6,0-0.9c-0.1-0.2-0.3-0.3-0.6-0.3c-0.3,0-0.5,0.1-0.8,0.3l-1.4,0.9
			l-0.7-1l1.3-0.9c0.3-0.2,0.5-0.4,0.5-0.6c0.1-0.2,0.1-0.4-0.1-0.6c-0.1-0.2-0.4-0.3-0.7-0.3c-0.3,0-0.6,0.1-1,0.4
			c-0.3,0.2-0.5,0.4-0.7,0.6c-0.2,0.2-0.4,0.5-0.6,0.8l-1.1-0.8c0.4-0.7,1-1.3,1.7-1.8c0.5-0.3,0.9-0.5,1.4-0.6
			c0.5-0.1,0.9-0.1,1.3,0c0.4,0.1,0.7,0.3,0.9,0.7c0.2,0.3,0.3,0.6,0.3,0.9C120.4,137,120.3,137.3,120.1,137.6L120.1,137.6z
			 M126.4,132.6c0.4-0.2,0.8-0.2,1.1-0.2c0.4,0.1,0.7,0.3,0.9,0.6c0.4,0.5,0.5,1,0.4,1.6c-0.1,0.6-0.5,1.1-1.2,1.7l-2.6,2.3
			l-4.6-5.3l2.5-2.1c0.6-0.5,1.2-0.8,1.7-0.9c0.5-0.1,1,0.1,1.4,0.6c0.2,0.3,0.4,0.5,0.4,0.9C126.6,132,126.5,132.3,126.4,132.6
			L126.4,132.6z M123.6,134.4l1.1-1c0.3-0.2,0.4-0.5,0.5-0.7c0-0.2,0-0.4-0.2-0.7c-0.2-0.2-0.4-0.3-0.6-0.3c-0.2,0-0.5,0.1-0.7,0.4
			l-1.1,1L123.6,134.4L123.6,134.4z M126.9,135.4c0.6-0.5,0.7-1,0.3-1.4c-0.4-0.4-0.9-0.4-1.4,0.1l-1.3,1.2l1.2,1.3L126.9,135.4
			L126.9,135.4z M126.5,128.1l1.1-1.2l3.3,3.1l-1-5.5l1-1.1l5,4.8l-1.1,1.2l-3.3-3.1l1,5.5l-1.1,1.1L126.5,128.1L126.5,128.1z
			 M136.6,118.3l-1.4,1.8l4.4,3.5l-1,1.3l-4.4-3.5l-1.4,1.7l-1-0.8l3.7-4.8L136.6,118.3L136.6,118.3z M136.1,116.5l0.8-1.4l3.9,2.3
			l-2.3-5.2l0.8-1.3l6,3.5l-0.8,1.4l-3.9-2.3l2.3,5.1l-0.8,1.3L136.1,116.5L136.1,116.5z M142.6,103.8l6.4,2.9l-0.7,1.5l-1.7-0.8
			l-0.6,1.3l1.2,1.9l-0.7,1.6l-1.3-2.2c-0.4,0.3-0.8,0.6-1.2,0.6c-0.5,0.1-0.9,0-1.4-0.2c-0.5-0.2-0.9-0.5-1.1-0.9
			c-0.3-0.4-0.4-0.8-0.4-1.3c0-0.5,0.1-1,0.4-1.6L142.6,103.8L142.6,103.8z M142.6,107.1c-0.2,0.4-0.2,0.8-0.1,1.1
			c0.1,0.3,0.3,0.5,0.7,0.7c0.4,0.2,0.7,0.2,1,0.1c0.3-0.1,0.5-0.4,0.7-0.8l0.6-1.3l-2.3-1L142.6,107.1L142.6,107.1z"/>
		<path class="st3" d="M40.8,60.4c1,1.8,3,3.7,5,4.3c0.2,0.1,0.3,0.2,0.4,0.5c0.3,0.9-0.3,1.9-0.6,2.4c-0.3,0.5-1.5,1.7-2.1,2.1
			c-0.4,0.2-1.5,0.7-1.2,1.3c0.2,0.6,1.8,0.5,2.5,0.5c1.4-0.1,2.5-0.3,3.8-0.6l-0.1,0.2c-0.1,0.1-0.2,0.2-0.3,0.4
			c-0.3,1.2,2.7,0.9,2.6-0.2c0-0.6-0.8-0.6-1-0.6l-0.1,0c0.8-0.2,2.8-1,3.2-1.7c0.3-0.5-0.2-0.7-0.5-0.8c-0.4-0.2-2.6-2.9-2.8-3.4
			c0.9-0.3,1.7-0.7,2.4-1.2c0.2-0.1,1.7-1.3,1.8-1.6l-1.8,0.5c-2.1,0.5-4.8,0.8-6.7,0.4c-1.7-0.4-3-1-4.1-2.3
			C40.9,60.5,40.9,60.4,40.8,60.4L40.8,60.4z M23,64.3c-0.2,2-1.1,4.6-2.6,6c-0.2,0.2-0.2,0.3-0.2,0.6c0.1,1,1.1,1.6,1.6,1.9
			c0.5,0.3,2.1,0.9,2.9,1c0.4,0.1,1.6,0,1.7,0.7c0,0.6-1.4,1.3-2,1.5c-1.3,0.5-2.3,0.8-3.7,1.1l0.2,0.1c0.2,0.1,0.3,0.1,0.4,0.2
			c0.8,1-2,1.9-2.5,0.9c-0.3-0.6,0.4-0.8,0.6-1l0-0.1c-0.8,0.1-3,0.3-3.6-0.1c-0.5-0.3-0.1-0.7,0.1-0.9c0.3-0.3,1.1-3.7,1.1-4.3
			c-0.9,0.1-1.8,0.1-2.6-0.1c-0.2,0-2.1-0.4-2.3-0.6l1.8-0.3c2.1-0.4,4.7-1.4,6.2-2.5c1.4-1.1,2.3-2.2,2.7-3.9
			C22.9,64.4,22.9,64.4,23,64.3L23,64.3z M21.8,78c-0.4-0.6,0.4-1.1,0.9-1.3c0.6-0.2,1.5-0.2,1.8,0.3C25.2,78.1,22.5,79,21.8,78z
			 M19,66.9c-0.8,0.9-2.2,1.3-3.1,1.7c0.5,0.5,1.3,1,2.1,0.2C18.7,68.1,18.9,67.1,19,66.9z M22.6,64.3c-0.1,0.3-0.6,0.5-0.9,0.4
			c0,0.4,0.1,0.5,0.3,0.7c-0.4,0.1-0.4-0.1-0.7-0.1c0,0.2,0.1,0.3,0.1,0.4c0,0.3,0,0.3-0.1,0.3c-0.1-0.5-0.2-0.9-0.7-0.8
			c0-0.1,0-0.1,0.1-0.2c-0.3-0.2-0.1-0.7,0-0.9c-0.2-0.2-1-0.9-1.4-0.4c-0.2,0.2-0.4,1-0.2,1.2l0.3,0.3c0.8,0.8,0.7,2.3-0.1,3.2
			c-1.2,1.3-3.5,1.4-4.6,0c-0.5-0.6-0.5-1-0.5-1.9c-0.4,0-0.9-0.4-1.3-0.3c0.1,0.4,0,0.2,0.2,0.5c-0.3,0.1-0.3,0.3-0.3,0.6
			c0,0.3,0.2,0.7,0.2,0.8c0,0,0,0,0,0l0,0.1c-0.2-0.2-0.3-0.7-0.4-1c0,0.3-0.2,0.7-0.4,0.8c0-0.3,0.1-0.2,0-0.6
			c-0.3,0.4-0.7,0.3-1,0.1c0.1-0.1,0,0,0.2-0.1c0.1,0,0.2,0,0.3-0.1c0.5-0.2,0.1-0.5,0.8-1.1c0.8-0.8,1.8-0.2,1.9-0.1l0.2-0.5
			c0,0,0,0,0-0.1l0.6-0.7c0.1-0.1,0.1-0.1,0.2-0.1c0.2-0.2,0.1-0.1,0.7-0.4c0.4-0.2,1-0.3,1.5-0.2c0.5,0,0.8,0.2,1.3,0.4
			c0.1-0.2-0.1-1,0.3-1.3c0.4-0.3,1-0.1,1.4,0.1c0.4,0.2,0.7,0.4,1.1,0.6c0.2,0.1,0.4,0.2,0.6,0.3C22.4,64.4,22.5,64.3,22.6,64.3
			L22.6,64.3z M26.2,67L26.2,67c0.1,0,0.2,0,0.3,0.1c1.8,1.2,4.3,0.5,6.1-0.3c1.7-0.7,3.2-1.9,4.6-3c0.2-0.1,0.4-0.4,0.6-0.5
			c-0.1,0.3-0.6,0.9-0.7,1.2c-0.1,0.2-0.3,0.4-0.4,0.6c-0.4,0.6-0.9,1.1-1.4,1.6c-0.5,0.5-0.7,0.6-1.1,1c0.7,0.7,1.2,1.7,1,2.9
			c-0.1,1-0.6,1.8-1.6,2.2c0.5,0,1.4,0,1.5,0.8c0.1,1.3-2.6,1.9-2.9,0.6c-0.2-0.7,0.5-1.1,1.1-1.4c-0.9,0-1.5-0.2-2.1-1
			c-0.7-0.9-0.7-1.7-0.7-2.7c-0.5-0.1-0.9,0.1-2.3-0.7C27,68,26.3,67.1,26.2,67L26.2,67z M37.8,73c0,1.4-2.7,1.7-2.8,0.3
			C35,71.8,37.8,71.5,37.8,73z M29.4,64c0.3,0.6,1,1.4,1.5,1.8c1.3,0.9,1.5-2.1,1.5-3c-0.2,0.1-0.1,0.2-0.5,0.6
			C31.3,64.1,30.3,64.1,29.4,64L29.4,64z M30.6,59.8c2-0.2,3.6,1.4,3.6,3.2c0,1.6-1.2,3.4-3.3,3.6c-1.7,0.2-3.6-1.1-3.6-3.2
			C27.3,61.8,28.5,60,30.6,59.8L30.6,59.8z M47.8,72.3c0.1-0.7-0.9-0.8-1.4-0.8c-0.7,0.1-1.4,0.5-1.5,1
			C44.8,73.8,47.7,73.4,47.8,72.3L47.8,72.3z M45.5,61c1.1,0.5,2.5,0.2,3.6,0.2c-0.2,0.6-0.8,1.4-1.8,1.1C46.3,62,45.7,61.2,45.5,61
			L45.5,61z M41.1,60.3c0.2,0.2,0.7,0.2,1,0c0.2,0.4,0.1,0.5,0,0.7c0.4-0.1,0.3-0.2,0.5-0.4c0,0.2,0.1,0.3,0.1,0.4
			c0.1,0.3,0.1,0.2,0.2,0.3c-0.2-0.5-0.2-0.9,0.3-1.1c-0.1-0.1-0.1,0-0.1-0.1c0.2-0.3-0.2-0.6-0.3-0.8c0.1-0.3,0.5-1.2,1.1-1
			c0.3,0.1,0.8,0.7,0.7,1l-0.1,0.4c-0.3,1,0.4,2.4,1.5,2.8c1.7,0.7,3.8-0.2,4.2-2c0.2-0.8,0-1.1-0.3-1.9c0.4-0.2,0.6-0.8,1-0.8
			c0.1,0.4,0.1,0.2,0,0.5c0.3,0,0.4,0.1,0.6,0.4c0.1,0.3,0.1,0.7,0.2,0.8c0,0,0,0,0,0l0,0.1c0.1-0.3,0-0.7-0.1-1.1
			c0.1,0.3,0.4,0.6,0.7,0.6c-0.1-0.2-0.2-0.2-0.2-0.6c0.5,0.2,0.7,0,0.9-0.3c-0.1,0,0,0-0.2,0c-0.1,0-0.2,0.1-0.3,0.1
			c-0.5,0-0.4-0.4-1.2-0.7c-1.1-0.3-1.7,0.6-1.8,0.7l-0.4-0.3c0,0,0,0-0.1,0l-0.8-0.4c-0.1,0-0.1,0-0.2,0c-0.3,0-0.1-0.1-0.8-0.1
			c-0.5,0-1,0.2-1.4,0.4c-0.5,0.3-0.7,0.5-1,0.9c-0.2-0.2-0.3-0.9-0.9-1c-0.5-0.1-1,0.4-1.2,0.6c-0.3,0.4-0.5,0.7-0.7,1.1
			c-0.1,0.2-0.2,0.3-0.4,0.5C41.4,60.2,41.2,60.2,41.1,60.3L41.1,60.3z"/>
	</g>
</g>
</svg>
