<?xml version="1.0" encoding="utf-8"?>
<!-- Generator: Adobe Illustrator 23.0.1, SVG Export Plug-In . SVG Version: 6.00 Build 0)  -->
<svg version="1.1" id="Слой_1" xmlns="http://www.w3.org/2000/svg" xmlns:xlink="http://www.w3.org/1999/xlink" x="0px" y="0px"
	 viewBox="0 0 60 60" style="enable-background:new 0 0 60 60;" xml:space="preserve">
<style type="text/css">
	.st0{clip-path:url(#SVGID_2_);fill:#003333;}
	.st1{clip-path:url(#SVGID_2_);fill-rule:evenodd;clip-rule:evenodd;fill:#00A4B5;}
</style>
<g>
	<defs>
		<rect id="SVGID_1_" y="0" width="60" height="60"/>
	</defs>
	<clipPath id="SVGID_2_">
		<use xlink:href="#SVGID_1_"  style="overflow:visible;"/>
	</clipPath>
	<path class="st0" d="M56.5,15.4c0,0.6,0,1.3,0,2h1.6v33.4H31.4v1c0,0.4-0.1,0.7-0.4,1v-9.1c-0.6,0-1.3,0-2,0v9.1
		c-0.2-0.2-0.4-0.6-0.4-1v-1H1.8V17.4h5.3c0-0.6,0-1.3,0-2h-7.3v37.3h2v1.5c0,0.6,0.3,1.2,0.7,1.6s1,0.7,1.6,0.7h21.4
		c0.2,0.8,0.6,1.6,1.2,2.2c0.8,0.8,2,1.3,3.2,1.3s2.4-0.5,3.2-1.3c0.6-0.6,1-1.3,1.2-2.2h21.4c0.6,0,1.2-0.3,1.6-0.7
		c0.4-0.4,0.7-1,0.7-1.6v-1.5h2V15.4H56.5z M56.2,54.2c0,0.1,0,0.2-0.1,0.3c-0.1,0.1-0.2,0.1-0.3,0.1H32.6v1c0,0.7-0.3,1.3-0.7,1.8
		c-0.4,0.4-1.1,0.7-1.8,0.7s-1.3-0.3-1.8-0.7c-0.4-0.4-0.7-1.1-0.7-1.8v-1H4.2c-0.1,0-0.2,0-0.3-0.1c-0.1-0.1-0.1-0.2-0.1-0.3v-1.5
		h23c0.2,0.5,0.4,1,0.8,1.3c0.6,0.6,1.4,1,2.4,1c0.9,0,1.7-0.4,2.4-1c0.4-0.4,0.7-0.8,0.8-1.3h23V54.2z"/>
	<path class="st0" d="M40.1,26.4c-2.4,0-4.3-0.6-6.2-1.7l0.4-1.2c1.6,1,3.7,1.5,5.8,1.5c2.6,0,5.1-0.8,7.1-2.3
		c2.5-2.1,3.8-5.1,4-8.9c-1.2-0.6-2.5-2.3-3.3-3.4c-0.8,0.5-2.1,1.4-3,1.8c-1.7,0.8-7.8,0.8-9.5,0c-0.9-0.4-2.3-1.3-3-1.8
		c-0.7,1.1-2.1,2.8-3.3,3.4c0,0.6,0.1,1.2,0.2,1.8l-1.4,0.2c-0.1-0.8-0.2-1.6-0.2-2.5c0-0.3,0.3-0.6,0.6-0.7
		c0.6-0.1,2.2-1.9,3.3-3.6c0.1-0.2,0.3-0.3,0.5-0.3c0.2,0,0.4,0,0.5,0.1c0,0,2.1,1.5,3.4,2.1c1.4,0.6,7,0.6,8.3,0
		c1.3-0.6,3.4-2.1,3.4-2.1c0.2-0.1,0.4-0.2,0.5-0.1c0.2,0,0.4,0.1,0.5,0.3c1.1,1.7,2.7,3.5,3.3,3.6c0.4,0.1,0.6,0.4,0.6,0.7
		c-0.1,4.5-1.6,8-4.6,10.5C45.8,25.5,43,26.4,40.1,26.4z"/>
	<path class="st1" d="M52.2,13.2c-0.1,0.1-0.2,0.1-0.4,0.1C50.4,13,48,9.3,48,9.3s-2.2,1.5-3.5,2.2c-1.5,0.7-7.4,0.7-8.9,0
		c-1.3-0.6-3.5-2.2-3.5-2.2s-2.5,3.7-3.8,3.9c-0.1,0-0.3,0-0.4-0.1c-1.2-0.8,1.1-11,12.2-11S53.6,12.3,52.2,13.2z"/>
	<path class="st0" d="M51.8,14c0,0-0.1,0-0.1,0c-1.3-0.2-3-2.4-3.9-3.6c-0.8,0.5-2.1,1.4-3,1.8C43,13,37,13,35.2,12.1
		c-1-0.4-2.3-1.3-3-1.8c-0.9,1.2-2.6,3.4-3.9,3.6c0,0-0.1,0-0.1,0c-0.2,0-0.6,0-0.9-0.3c-1-0.7-0.4-2.9-0.2-3.5
		c1.2-4,5.3-8.7,12.9-8.7c8.4,0,12.1,5.6,13,8.9c0.4,1.6,0.3,2.9-0.4,3.3C52.3,14,52,14,51.8,14z M28.3,12.6
		C28.3,12.6,28.3,12.6,28.3,12.6C28.3,12.6,28.3,12.6,28.3,12.6z M28.3,12.6L28.3,12.6L28.3,12.6z M51.8,12.6L51.8,12.6L51.8,12.6z
		 M51.8,12.5C51.8,12.5,51.8,12.5,51.8,12.5S51.8,12.5,51.8,12.5z M48,8.6c0,0,0.1,0,0.1,0c0.2,0,0.4,0.1,0.5,0.3
		c1.1,1.6,2.6,3.3,3.2,3.6c0.1-0.4,0.1-1.9-1-3.8c-1-1.8-3.9-5.9-10.8-5.9c-6.3,0-9.3,3.4-10.5,5.5c-1.2,1.9-1.4,3.6-1.2,4.2
		c0.7-0.3,2.1-2,3.2-3.6c0.1-0.2,0.3-0.3,0.5-0.3c0.2,0,0.4,0,0.5,0.1c0,0,2.1,1.5,3.4,2.1c1.4,0.6,7,0.6,8.3,0
		c1.3-0.6,3.4-2.1,3.4-2.1C47.7,8.7,47.8,8.6,48,8.6z"/>
	<path class="st0" d="M8.8,29.8C8.8,29.8,8.8,29.8,8.8,29.8c-2.6-0.3-3.9-2.2-4-3.9c-0.2-1.8,0.7-3.4,2.4-3.9c0.2-0.1,0.5,0,0.6,0.1
		c0.2,0.1,0.3,0.3,0.3,0.6c0,0.4,0.1,0.7,0.2,0.8c0.1,0.1,0.2,0.1,0.2,0.2c0.2,0.1,0.4,0.4,0.4,0.6c0,2,0.2,3.5,0.6,4.6
		c0.1,0.2,0,0.5-0.1,0.7C9.3,29.7,9.1,29.8,8.8,29.8z M6.9,23.7c-0.6,0.5-0.7,1.3-0.7,2c0.1,0.9,0.6,1.9,1.6,2.4
		c-0.2-0.9-0.3-2.1-0.3-3.4c-0.2-0.1-0.3-0.3-0.4-0.5C7,24,6.9,23.9,6.9,23.7z"/>
	<path class="st0" d="M27.4,42.7H12.3c-1.3,0-2.1-0.1-2.9-1c-1.1-1.5,0.4-4.4,2.1-7c0.1-0.2,0.2-0.3,0.2-0.4
		c0.1-0.2,0.4-0.4,0.6-0.4h0.1c0.2,0,0.3,0.1,0.4,0.2c1.9,1.6,4.4,2.4,7,2.4s5-0.9,7-2.4c0.1-0.1,0.3-0.2,0.4-0.2h0.1
		c0.2,0,0.4,0.1,0.6,0.3c1.2,1.6,3.7,5.6,2.5,7.4l0,0C29.7,42.7,28.8,42.7,27.4,42.7z M12.6,35.7c-2.4,3.9-2.2,4.9-2,5.2
		c0.3,0.3,0.5,0.4,1.8,0.4h15.1c1.4,0,1.6-0.1,1.8-0.4l0,0c0.4-0.6-0.5-2.9-2.1-5.2C25,37.2,22.5,38,19.8,38
		C17.2,38,14.6,37.2,12.6,35.7z M29.8,41.3L29.8,41.3L29.8,41.3z"/>
	<path class="st0" d="M40.1,18.6c-0.8,0-2.1-0.1-3-1c-0.3-0.3-0.3-0.9,0-1.3c0.3-0.3,0.9-0.3,1.3,0c0.3,0.3,0.9,0.5,1.7,0.5
		s1.4-0.2,1.7-0.5c0.3-0.3,0.9-0.3,1.3,0c0.3,0.3,0.3,0.9,0,1.3C42.2,18.4,40.8,18.6,40.1,18.6z"/>
	<path class="st0" d="M47.7,31.1H30.6c-0.4,0-0.7-0.3-0.7-0.7c0-0.4,0.3-0.7,0.7-0.7h17.1c1.4,0,1.6-0.1,1.8-0.4
		c0.2-0.4,0.3-1.5-2-5.1c-2.1,1.4-4.7,2.2-7.3,2.2c-2.2,0-4.2-0.5-6-1.4c-0.3-0.2-0.5-0.6-0.3-1c0.2-0.3,0.6-0.5,1-0.3
		c1.5,0.8,3.4,1.3,5.3,1.3c2.6,0,5.2-0.9,7.1-2.4c0.2-0.1,0.4-0.2,0.6-0.1c0.2,0,0.4,0.2,0.5,0.3c0,0.1,0.1,0.2,0.2,0.4
		c1.6,2.6,3.1,5.4,2.1,6.9C50,31,49.1,31.1,47.7,31.1z"/>
	<path class="st0" d="M31,29.8c-0.2,0-0.4-0.1-0.6-0.3c-0.2-0.2-0.2-0.4-0.1-0.7c0.4-1,0.6-2.4,0.7-4.6c0-0.3,0.2-0.5,0.4-0.6
		c0.1,0,0.2-0.1,0.2-0.1c0.2-0.2,0.2-0.5,0.2-0.9c0-0.2,0.1-0.4,0.3-0.6c0.2-0.1,0.4-0.2,0.6-0.1c1.6,0.5,2.6,2.1,2.4,3.9
		C35,27.6,33.6,29.5,31,29.8C31.1,29.8,31.1,29.8,31,29.8z M32.4,24.7c-0.1,1.4-0.2,2.5-0.4,3.4c1.1-0.5,1.6-1.5,1.7-2.4
		c0.1-0.7-0.1-1.5-0.7-2c-0.1,0.2-0.2,0.4-0.3,0.5C32.8,24.4,32.6,24.6,32.4,24.7z"/>
	<path class="st0" d="M29,19.1C28.9,19.1,28.9,19.1,29,19.1c-2.6-0.3-3.9-2.1-4.1-3.9c-0.2-1.8,0.7-3.4,2.3-4c0.2-0.1,0.5,0,0.6,0.1
		c0.2,0.1,0.3,0.3,0.3,0.6c0,0.4,0.1,0.7,0.2,0.8c0.1,0.1,0.2,0.1,0.2,0.2c0.2,0.1,0.4,0.3,0.4,0.6c0.1,2.2,0.3,3.7,0.7,4.6
		c0.1,0.2,0,0.5-0.1,0.7C29.4,19,29.2,19.1,29,19.1z M26.9,13.1c-0.5,0.5-0.7,1.3-0.6,2c0.1,0.9,0.6,1.9,1.7,2.4
		c-0.2-0.9-0.3-2-0.4-3.4c-0.2-0.1-0.3-0.3-0.5-0.5C27,13.4,27,13.2,26.9,13.1z"/>
	<path class="st0" d="M51.2,19.1c-0.2,0-0.4-0.1-0.6-0.3c-0.2-0.2-0.2-0.4-0.1-0.7c0.4-1,0.6-2.4,0.7-4.6c0-0.3,0.2-0.5,0.4-0.6
		c0.1,0,0.2-0.1,0.2-0.1c0.2-0.2,0.2-0.5,0.2-0.9c0-0.2,0.1-0.4,0.3-0.6c0.2-0.1,0.4-0.2,0.6-0.1c1.6,0.5,2.6,2.1,2.4,3.9
		C55.1,16.9,53.8,18.8,51.2,19.1C51.2,19.1,51.2,19.1,51.2,19.1z M52.6,14c-0.1,1.4-0.2,2.5-0.4,3.4c1.1-0.5,1.6-1.5,1.7-2.4
		c0.1-0.7-0.1-1.5-0.7-2c-0.1,0.2-0.2,0.4-0.3,0.5C52.9,13.7,52.7,13.9,52.6,14z"/>
	<path class="st0" d="M19.9,38c-2.9,0-5.7-1-7.8-2.7c-3-2.4-4.6-6.3-4.6-11c0-0.2,0.1-0.5,0.3-0.6c0.2-0.1,0.5-0.1,0.7,0
		c1.8,0.9,9.8-3.3,11-4.4c0.3-0.3,0.7-0.2,1,0c0.9,0.9,8.9,5.2,10.9,4.4c0.2-0.1,0.5-0.1,0.7,0.1c0.2,0.1,0.3,0.4,0.3,0.6
		c0,4.7-1.7,8.6-4.7,11C25.6,37.1,22.9,38,19.9,38z M8.9,25.1c0.2,5,2.3,7.7,4,9.1c1.9,1.6,4.4,2.4,7,2.4c2.6,0,5-0.8,7-2.4
		c2.5-2,4-5.2,4.1-9.1c-3.1,0-9.1-3.1-11-4.5C18.1,21.9,12.1,25.3,8.9,25.1z"/>
	<path class="st0" d="M34.3,15.6c0.7,0,1.2-0.6,1.2-1.2c0-0.7-0.6-1.2-1.2-1.2c-0.7,0-1.2,0.6-1.2,1.2
		C33.1,15.1,33.6,15.6,34.3,15.6z"/>
	<path class="st0" d="M45.8,15.6c0.7,0,1.2-0.6,1.2-1.2c0-0.7-0.6-1.2-1.2-1.2s-1.2,0.6-1.2,1.2C44.6,15.1,45.1,15.6,45.8,15.6z"/>
	<path class="st0" d="M19.9,30c-0.8,0-2.1-0.1-3-1c-0.3-0.3-0.3-0.9,0-1.3c0.3-0.3,0.9-0.3,1.3,0c0.3,0.3,0.9,0.5,1.7,0.5
		s1.4-0.2,1.7-0.5c0.3-0.3,0.9-0.3,1.3,0c0.3,0.3,0.3,0.9,0,1.3C22.1,29.8,20.7,30,19.9,30z"/>
	<path class="st0" d="M14.2,26.9c0.7,0,1.2-0.6,1.2-1.2s-0.6-1.2-1.2-1.2c-0.7,0-1.2,0.6-1.2,1.2S13.5,26.9,14.2,26.9z"/>
	<path class="st0" d="M25.7,26.9c0.7,0,1.2-0.6,1.2-1.2s-0.6-1.2-1.2-1.2s-1.2,0.6-1.2,1.2S25,26.9,25.7,26.9z"/>
	<path class="st1" d="M25.3,13.9c0.6-1.7-0.5-2.8-2-3.4c0,0,2.3-7.5,1.1-8.6c-1.1-1.1-3-1.2-4.5-1.2c-1.6,0-3.5,0.1-4.5,1.2
		c-1,1.1,1.1,8.6,1.1,8.6c-1.4,0.6-2.6,1.6-2,3.4h0.1c-5.8,2.4-8,8-7,10C9,26.2,18.9,20.8,20,19.7c1,1,11,6.5,12.3,4.1
		C33.4,22,31,16.2,25.3,13.9z"/>
	<path class="st0" d="M31,25.1c-3.1,0-9.1-3.2-11-4.5c-2,1.4-8.6,4.9-11.5,4.5c-0.8-0.1-1.2-0.6-1.4-0.9c-0.5-0.9-0.4-2.3,0.1-3.8
		c0.8-2.3,3-5.2,6.6-6.9c-0.2-1,0-2.4,1.9-3.4c-0.8-3-1.9-7.6-0.8-8.7c1.2-1.3,3.1-1.5,5-1.5c1.9,0,3.8,0.2,5,1.4
		c1.2,1.2,0.1,5.8-0.8,8.8c1.9,1,2.1,2.4,1.9,3.4c3.8,1.7,6,4.8,6.8,7.2c0.5,1.5,0.5,2.7,0.1,3.5c-0.2,0.4-0.6,0.8-1.5,0.9
		C31.3,25.1,31.2,25.1,31,25.1z M15.2,13.3c0.1,0.1,0.2,0.2,0.2,0.4c0.1,0.3-0.1,0.7-0.4,0.8c-3.6,1.5-5.7,4.2-6.4,6.4
		c-0.5,1.3-0.4,2.2-0.2,2.6c0,0.1,0.2,0.1,0.4,0.2c2.5,0.4,9.8-3.6,10.8-4.5c0.3-0.3,0.7-0.2,1,0c0.8,0.8,8.1,4.8,10.7,4.5
		c0.2,0,0.4-0.1,0.5-0.2c0.2-0.3,0.2-1.2-0.2-2.4c-0.8-2.2-2.9-5.1-6.6-6.6c-0.3-0.1-0.5-0.5-0.4-0.9c0.3-0.7,0.3-1.7-1.6-2.5
		c-0.3-0.1-0.5-0.5-0.4-0.9c1.1-3.7,1.7-7.4,1.3-7.9c-0.9-0.9-2.5-1-4-1c-1.6,0-3.2,0.1-4,1c-0.4,0.6,0.2,4.2,1.3,8
		c0.1,0.3-0.1,0.7-0.4,0.8C15.2,11.8,15,12.7,15.2,13.3z"/>
	<path class="st0" d="M26.1,14.1l-1.3-0.4c0.2-0.6,0.1-1.1-0.2-1.5c-0.8-1.1-3.2-1.6-4.5-1.6s-3.7,0.5-4.5,1.6
		c-0.3,0.4-0.4,0.9-0.2,1.5L14,14.1c-0.3-1-0.2-2,0.4-2.8c1.3-1.8,4.5-2.2,5.6-2.2s4.3,0.4,5.6,2.2C26.3,12.1,26.4,13.1,26.1,14.1z"
		/>
	<path class="st0" d="M8.9,25.1c-0.2,0-0.3,0-0.5,0c-0.9-0.1-1.3-0.6-1.5-0.9c-0.7-1.2-0.3-3.3,0.9-5.4c0.9-1.6,4.4-6.6,12-6.6
		c8.9,0.1,13.3,6.8,13.3,10.5c0,0.7-0.1,1.2-0.4,1.6c-0.2,0.3-0.5,0.5-0.8,0.7c-2.7,1.1-10-2.9-12.1-4.3C17.9,22,12,25.1,8.9,25.1z
		 M19.8,13.6c-6.8,0-10,4.5-10.8,5.9c-1.1,1.8-1.3,3.4-0.9,4c0.1,0.1,0.3,0.2,0.5,0.2c2.6,0.3,10-3.7,10.7-4.5c0.3-0.3,0.7-0.3,1,0
		c1.1,1,9.1,5.2,11.1,4.4c0,0,0.1-0.1,0.2-0.1c0.2-0.2,0.2-0.5,0.2-0.9C31.8,19.5,27.7,13.6,19.8,13.6z"/>
	<path class="st0" d="M24.1,10.8l-1.4-0.4C23.8,6.7,24.5,3,24,2.4c-0.9-0.9-2.5-1-4-1c-1.5,0-3.2,0.1-4.1,1
		c-0.4,0.6,0.2,4.3,1.3,7.9l-1.4,0.4c-0.9-3-2.2-8.1-1-9.3C16.2,0.2,18.2,0,20,0c1.9,0,3.8,0.2,5,1.4C26.3,2.7,25,7.8,24.1,10.8z"/>
</g>
</svg>
