<?xml version="1.0" encoding="utf-8"?>
<!-- Generator: Adobe Illustrator 23.0.1, SVG Export Plug-In . SVG Version: 6.00 Build 0)  -->
<svg version="1.1" id="Слой_1" xmlns="http://www.w3.org/2000/svg" xmlns:xlink="http://www.w3.org/1999/xlink" x="0px" y="0px"
	 viewBox="0 0 48.5 60" style="enable-background:new 0 0 48.5 60;" xml:space="preserve">
<style type="text/css">
	.st0{fill:none;}
	.st1{fill:#003333;}
	.st2{fill-rule:evenodd;clip-rule:evenodd;fill:#00A4B5;}
</style>
<g>
	<rect class="st0" width="48.5" height="60"/>
	<path class="st1" d="M5.3,28.7C5.3,28.7,5.3,28.7,5.3,28.7C4,28.6,2.3,28,1.2,26.8c-0.7-0.9-1.1-1.8-1.1-3c0-1.1,0.3-2.2,0.9-3
		c0.7-1,1.7-1.6,3.1-2.1c0.3-0.1,0.6-0.1,0.8,0.1c0.2,0.2,0.3,0.5,0.3,0.8c-0.1,0.6-0.1,1.1-0.1,1.9c0,2.2,0.3,4.2,1,6.1
		c0,0.1,0.1,0.2,0,0.3v0c0,0,0,0,0,0c0,0.1,0,0.2-0.1,0.3c0,0,0,0.1-0.1,0.1c0,0,0,0,0,0c0,0,0,0,0,0c-0.1,0.1-0.2,0.2-0.4,0.3
		C5.5,28.6,5.4,28.7,5.3,28.7z M3.4,20.8c-0.4,0.3-0.8,0.6-1,0.9c-0.4,0.6-0.6,1.3-0.6,2c0,0.8,0.2,1.4,0.7,1.9c0.4,0.4,1,0.8,1.6,1
		c-0.5-1.7-0.7-3.4-0.7-5.3C3.4,21.2,3.4,21,3.4,20.8z"/>
	<path class="st1" d="M9.3,52.1c-0.1,0-0.2,0-0.3-0.1c-0.7-0.3-1.3-0.8-1.8-1.4c-0.6-0.8-1-2.5,1.1-8c0-0.1,0-0.2,0.1-0.3
		c0.8-2.1,1.6-3.5,2.9-5.5c0.1-0.4,0.5-0.6,0.9-0.6c0.2,0,0.4,0.1,0.6,0.2l0.1,0.1c0.8,0.7,2,1.4,3.4,2.1c0.2,0.1,0.4,0.3,0.4,0.5
		c0.1,0.2,0,0.5-0.1,0.7c-1,1.7-1.5,3.8-1.7,5c3,0.6,4.9,1.9,5.1,3.7c0.2,1.3-0.7,2.6-2.4,3.3c-0.2,0.1-0.4,0.1-0.5,0
		c-0.7-0.2-1.5-0.4-2.4-0.5c-2.5-0.2-3.5-0.1-4.7,0.6c0,0-0.1,0.1-0.1,0.1C9.6,52.1,9.4,52.1,9.3,52.1z M9.9,42.8
		c0,0.1,0,0.2-0.1,0.2c-2,5.3-1.4,6.5-1.4,6.6c0.2,0.3,0.5,0.5,0.7,0.7c1.6-0.9,3.1-0.9,5.6-0.7c0.9,0.1,1.8,0.3,2.4,0.5
		c0.7-0.4,1.1-0.8,1.1-1.3c-0.1-0.9-1.6-2-4.5-2.3c-0.5-0.1-0.8-0.5-0.7-0.9c0-0.1,0.4-3,1.6-5.6c-0.9-0.5-1.7-1-2.4-1.5
		C11.2,39.9,10.6,41.1,9.9,42.8z"/>
	<g>
		<path class="st2" d="M11.9,37.2c0,0,0,0.1-0.1,0.1c-1.3,1.9-1.9,3.3-2.9,5.4c-6.4-6.4-7.2-15.7-7.2-16.6c0.9,1.1,2.2,1.5,3.5,1.6
			C6.5,31.5,8.8,34.7,11.9,37.2z"/>
		<path class="st1" d="M9,43.6c-0.2,0-0.4-0.1-0.6-0.2c-7.1-7.1-7.5-17.1-7.5-17.2c0-0.4,0.2-0.7,0.6-0.8c0.3-0.1,0.7,0,0.9,0.3
			c0.7,0.9,2,1.2,2.9,1.3c0.3,0,0.6,0.3,0.7,0.6c1.2,3.6,3.4,6.7,6.4,9.1c0.2,0.2,0.3,0.4,0.3,0.7c0,0.3-0.1,0.6-0.4,0.8
			c-1.2,1.8-1.8,3-2.7,5.1c-0.1,0.3-0.3,0.4-0.6,0.5C9.1,43.6,9,43.6,9,43.6z M2.8,28c0.5,2.9,1.9,8.6,5.9,13.3
			c0.6-1.4,1.2-2.5,2.1-3.9c-2.9-2.4-4.9-5.4-6.2-8.9C4,28.4,3.4,28.2,2.8,28z"/>
	</g>
	<path class="st1" d="M26.1,60H11.4c-2.3,0-4.1-1.4-4.7-3.6c-0.6-2.3,0.3-4.6,2.1-5.7l0,0c0.1-0.1,0.1-0.1,0.2-0.1
		c1.7-1,3.3-1.1,5.8-0.9c1.1,0.1,2,0.4,2.7,0.6c3,0.8,5.4,2.5,7.5,5.2c1,1.3,1.6,2.5,1.8,3.1c0,0.1,0.1,0.1,0.1,0.2
		c0.1,0.2,0.2,0.5,0.1,0.8C26.8,59.8,26.5,60,26.1,60z M9.9,51.9L9.9,51.9c-0.1,0.1-0.1,0.1-0.2,0.2c-1.4,0.8-1.7,2.5-1.4,3.8
		c0.4,1.5,1.5,2.4,3.1,2.4h13.4c-0.3-0.5-0.6-1.2-1.2-1.8c-1.2-1.5-3.1-3.7-6.6-4.6c-0.7-0.2-1.5-0.4-2.4-0.5
		C12.2,51.2,11.1,51.3,9.9,51.9z"/>
	<g>
		<path class="st2" d="M24.3,1v5.6c-1.7,2.6-11.2,11-19.6,12.7c-0.1,0-0.2,0.1-0.3,0.1c-0.9,0.2-1.9,0.7-2.7,1.8
			C1.8,14.7,9.4,1,24.3,1z"/>
		<path class="st1" d="M1.7,22.1c-0.1,0-0.2,0-0.3,0c-0.4-0.1-0.6-0.4-0.6-0.8C1,13.8,9.1,0.1,24.3,0.1c0.5,0,0.9,0.4,0.9,0.9v5.6
			c0,0.2,0,0.3-0.1,0.5c-1.8,2.7-11.4,11.3-20.1,13c-0.1,0-0.2,0.1-0.4,0.1c-0.5,0.1-1.5,0.5-2.1,1.5C2.2,21.9,2,22.1,1.7,22.1z
			 M4.7,20.1C4.7,20.1,4.7,20.1,4.7,20.1C4.7,20.1,4.7,20.1,4.7,20.1z M23.4,1.8C11.5,2.3,4.2,12.4,2.8,19.1c0.5-0.3,1-0.4,1.4-0.5
			c0,0,0,0,0,0c0.1,0,0.2-0.1,0.4-0.1C12.4,16.8,21.5,9,23.4,6.3V1.8z"/>
	</g>
	<path class="st1" d="M43.3,28.6c-0.3,0-0.5-0.1-0.7-0.3c-0.2-0.2-0.2-0.5-0.1-0.8c0.7-2.2,1-4.2,1-6.1c0-0.6,0-1.2-0.1-1.8
		c0-0.3,0.1-0.6,0.3-0.8c0.2-0.2,0.5-0.3,0.8-0.2c0.7,0.2,2.1,0.7,3.2,2.1c0.6,0.7,0.9,1.8,0.9,2.9c0,1.2-0.3,2.1-1,3
		C46.2,28.1,44.2,28.5,43.3,28.6C43.3,28.6,43.3,28.6,43.3,28.6z M45.2,20.7c0,0.2,0,0.4,0,0.6c0,1.7-0.2,3.4-0.7,5.3
		c0.6-0.2,1.2-0.5,1.7-1c0.5-0.6,0.7-1.1,0.7-1.9c0-1.1-0.4-1.7-0.6-1.9C45.9,21.3,45.5,21,45.2,20.7z"/>
	<path class="st1" d="M39.4,52.2c-0.2,0-0.3-0.1-0.5-0.2c-0.1,0-0.1,0-0.2-0.1c-1.2-0.7-2.3-0.9-4.8-0.6c-0.9,0.1-1.7,0.3-2.4,0.5
		c-0.2,0.1-0.4,0-0.5,0c-1.6-0.7-2.6-1.9-2.4-3.3c0.2-1.8,2.1-3.1,5.1-3.7c-0.2-1.1-0.7-3.2-1.7-5c-0.1-0.2-0.1-0.5-0.1-0.7
		s0.3-0.4,0.5-0.5c0.2-0.1,0.5-0.3,0.8-0.4c0.1,0,0.1-0.1,0.2-0.1c0.2-0.1,0.5-0.3,0.8-0.4c0.3-0.2,0.6-0.4,0.9-0.6
		c0.1-0.1,0.2-0.2,0.3-0.3c0.1-0.1,0.3-0.2,0.4-0.3c0.3-0.4,1-0.4,1.3,0c0.1,0.1,0.1,0.1,0.2,0.2c1.3,2,2,3.4,2.9,5.6
		c0,0.1,0.1,0.2,0.1,0.3c0.9,2.3,2.2,6.3,1.2,8c-0.4,0.7-1.1,1.2-1.8,1.5C39.6,52.2,39.5,52.2,39.4,52.2z M38.8,52
		C38.8,52,38.8,52,38.8,52C38.8,52,38.8,52,38.8,52z M35.8,49.6c1.4,0,2.5,0.2,3.7,0.8c0.3-0.2,0.5-0.4,0.7-0.7c0,0,0,0,0,0
		c0.4-0.6,0-3.1-1.4-6.6c0-0.1,0-0.2-0.1-0.2c-0.8-1.8-1.4-3-2.3-4.5c-0.1,0.1-0.2,0.2-0.3,0.2c0,0-0.1,0-0.1,0.1
		c-0.2,0.1-0.5,0.3-0.8,0.5c-0.3,0.2-0.7,0.4-1,0.6c-0.1,0-0.1,0.1-0.2,0.1c1.2,2.6,1.6,5.5,1.6,5.6c0.1,0.5-0.3,0.9-0.7,0.9
		c-3,0.4-4.4,1.5-4.5,2.3c-0.1,0.5,0.3,1,1.1,1.3c0.7-0.2,1.5-0.4,2.4-0.5C34.5,49.6,35.2,49.6,35.8,49.6z"/>
	<g>
		<path class="st2" d="M46.8,26.1c0,1-0.9,10.2-7.2,16.6c-0.9-2.1-1.6-3.5-2.9-5.4c0,0,0-0.1-0.1-0.1c3.1-2.3,5.4-5.6,6.7-9.4
			C44.4,27.6,45.9,27.2,46.8,26.1z"/>
		<path class="st1" d="M39.5,43.6c-0.1,0-0.1,0-0.2,0c-0.3-0.1-0.5-0.3-0.6-0.5c-0.8-2-1.5-3.3-2.8-5.2c-0.1-0.1-0.2-0.2-0.2-0.4
			c-0.1-0.3,0-0.7,0.3-0.9c2.9-2.2,5.2-5.4,6.4-9c0.1-0.3,0.3-0.5,0.7-0.6c1.5-0.3,2.5-0.7,3-1.4c0.2-0.3,0.6-0.4,0.9-0.3
			c0.3,0.1,0.6,0.4,0.6,0.8c0,0.1-0.4,10.2-7.5,17.2C40,43.5,39.8,43.6,39.5,43.6z M37.7,37.4c0.9,1.4,1.5,2.5,2.1,3.8
			c4.1-4.6,5.4-10.4,5.9-13.2c-0.5,0.2-1.1,0.4-1.8,0.6C42.6,32,40.5,35.1,37.7,37.4z"/>
	</g>
	<path class="st1" d="M37.2,60H26.1c-0.4,0-0.7-0.2-0.8-0.6c0,0-0.5-1.4-1.7-3c-0.2-0.3-0.2-0.7,0-1c2-2.6,4.4-4.3,7.5-5.2
		c0.7-0.2,1.6-0.4,2.7-0.6c2.5-0.2,4-0.1,5.7,0.8c0.1,0,0.3,0.1,0.4,0.2c1.8,1.1,2.6,3.4,2,5.7C41.3,58.6,39.5,60,37.2,60z
		 M26.7,58.3h10.5c1.5,0,2.7-0.9,3.1-2.4c0.4-1.3,0-3-1.3-3.8c0,0,0,0-0.1,0c-0.1,0-0.1,0-0.2-0.1c-1.2-0.7-2.3-0.9-4.8-0.6
		c-0.9,0.1-1.7,0.3-2.4,0.5C29.1,52.6,27,54,25.4,56C26,56.9,26.4,57.8,26.7,58.3z M39.2,52.1C39.2,52.1,39.2,52.1,39.2,52.1
		C39.2,52.1,39.2,52.1,39.2,52.1z"/>
	<path class="st1" d="M24.3,42.3c-3.2,0-6.2-0.7-8.9-2c-1.2-0.6-2.4-1.4-3.7-2.3c0,0-0.1-0.1-0.1-0.1l-0.1-0.1
		c-3.2-2.4-5.6-5.9-7-9.7c-0.8-2.4-1.1-4.5-1.1-6.7c0-0.7,0-1.3,0.1-2.1c0.1-0.3,0.3-0.6,0.6-0.7c0.1,0,0.2-0.1,0.4-0.1
		c8.1-1.7,17.4-9.9,19-12.3c0.3-0.5,1.1-0.5,1.4,0c1.6,2.4,10.9,10.6,19,12.3c0.2,0,0.3,0.1,0.4,0.1c0.4,0.1,0.7,0.4,0.7,0.8
		c0,0.2,0,0.5,0,0.7c0,0.4,0.1,0.8,0.1,1.2c0,2.5-0.4,4.6-1.1,6.7c-1.3,3.9-3.8,7.3-7,9.7C37,37.9,37,38,36.9,38
		c-0.1,0.1-0.3,0.2-0.4,0.3c-0.2,0.1-0.3,0.2-0.5,0.4c-0.1,0.1-0.2,0.1-0.2,0.2c-0.2,0.1-0.4,0.3-0.7,0.4c-0.2,0.1-0.3,0.2-0.5,0.3
		c-0.1,0.1-0.3,0.1-0.4,0.2c-0.2,0.1-0.4,0.2-0.6,0.3c-0.1,0.1-0.3,0.1-0.4,0.2c0,0-0.1,0-0.1,0.1C30.3,41.6,27.3,42.3,24.3,42.3z
		 M12.7,36.7c1.2,0.9,2.3,1.6,3.5,2.1c2.4,1.2,5.2,1.8,8.1,1.8c2.7,0,5.5-0.6,8.1-1.8c0.2-0.1,0.3-0.2,0.5-0.3
		c0.1-0.1,0.3-0.1,0.4-0.2c0.2-0.1,0.4-0.2,0.6-0.3c0.1-0.1,0.3-0.1,0.4-0.2c0.1,0,0.1-0.1,0.2-0.1c0.1,0,0.2-0.1,0.4-0.2
		c0.1-0.1,0.2-0.1,0.3-0.2c0.1-0.1,0.3-0.2,0.4-0.3c0.1-0.1,0.2-0.1,0.3-0.2c0.1-0.1,0.2-0.2,0.4-0.3c2.9-2.2,5.1-5.4,6.3-8.9
		c0.7-1.9,1-3.9,1-6.1c0-0.4,0-0.7-0.1-1c0-0.1,0-0.1,0-0.2c-7.8-1.7-16.3-8.8-19.1-12.1c-2.9,3.3-11.4,10.4-19.2,12.1
		c0,0.4,0,0.8,0,1.3c0,1.9,0.3,4,1,6.1c1.2,3.6,3.5,6.7,6.4,9C12.6,36.5,12.6,36.6,12.7,36.7L12.7,36.7z M44.2,18.7
		C44.2,18.7,44.2,18.7,44.2,18.7C44.2,18.7,44.2,18.7,44.2,18.7z M4.4,18.7C4.4,18.7,4.4,18.7,4.4,18.7C4.4,18.7,4.4,18.7,4.4,18.7z
		"/>
	<g>
		<path class="st2" d="M46.9,21.1c-0.7-1-1.8-1.5-2.7-1.8c-0.1,0-0.2-0.1-0.3-0.1C35.5,17.5,26,9.1,24.3,6.5V1
			C39.2,1,46.8,14.7,46.9,21.1z"/>
		<path class="st1" d="M46.9,22c-0.3,0-0.5-0.1-0.7-0.3C45.7,21,45,20.5,44,20.1c-0.1,0-0.2-0.1-0.3-0.1C35,18.2,25.4,9.6,23.6,7
			c-0.1-0.1-0.1-0.3-0.1-0.5V1c0-0.5,0.4-0.9,0.9-0.9c15.2,0,23.3,13.7,23.4,21c0,0.4-0.2,0.7-0.6,0.8C47.1,21.9,47,22,46.9,22z
			 M43.9,20C43.9,20,43.9,20,43.9,20C43.9,20,43.9,20,43.9,20z M44.4,18.5c0,0,0.1,0,0.1,0c0.5,0.2,0.9,0.4,1.3,0.6
			c-1.4-6.7-8.6-16.8-20.7-17.3v4.4c2,2.7,11,10.5,18.9,12.1C44.2,18.4,44.3,18.4,44.4,18.5z M44.2,18.4
			C44.2,18.4,44.2,18.4,44.2,18.4C44.2,18.4,44.2,18.4,44.2,18.4z"/>
	</g>
	<path class="st1" d="M24.3,28.6c-0.5,0-3.1-0.1-4.4-1.4c-0.3-0.3-0.3-0.9,0-1.2c0.3-0.3,0.9-0.3,1.2,0c0.6,0.6,2.1,0.9,3.2,0.9
		c1.5,0,2.7-0.3,3.2-0.9c0.3-0.3,0.9-0.4,1.2-0.1c0.3,0.3,0.4,0.9,0.1,1.2C27.9,28.1,26.4,28.6,24.3,28.6z"/>
	<path class="st1" d="M34.1,24.1C34.1,24.1,34.1,24.1,34.1,24.1c-1.5,0-2.4-1-2.5-1.1c-0.3-0.3-0.3-0.9,0-1.2c0.3-0.3,0.9-0.3,1.2,0
		c0,0,0.6,0.6,1.3,0.6c0.5,0,0.8-0.2,1.2-0.6c0.3-0.3,0.9-0.3,1.2,0c0.3,0.3,0.3,0.9,0,1.2C35.8,23.7,35,24.1,34.1,24.1z"/>
	<path class="st1" d="M14.5,24.2c-0.9,0-1.7-0.4-2.4-1.1c-0.3-0.3-0.3-0.9,0-1.2c0.3-0.3,0.9-0.3,1.2,0c0.4,0.4,0.8,0.6,1.2,0.6
		c0.7,0,1.3-0.6,1.3-0.6c0.3-0.3,0.9-0.4,1.2,0c0.3,0.3,0.4,0.9,0,1.2C16.9,23.2,16,24.2,14.5,24.2C14.5,24.2,14.5,24.2,14.5,24.2z"
		/>
</g>
</svg>
