<?xml version="1.0" encoding="utf-8"?>
<!-- Generator: Adobe Illustrator 23.0.1, SVG Export Plug-In . SVG Version: 6.00 Build 0)  -->
<svg version="1.1" id="Слой_1" xmlns="http://www.w3.org/2000/svg" xmlns:xlink="http://www.w3.org/1999/xlink" x="0px" y="0px"
	 viewBox="0 0 51.1 60" style="enable-background:new 0 0 51.1 60;" xml:space="preserve">
<style type="text/css">
	.st0{fill:#00A4B5;}
	.st1{fill:#003333;}
</style>
<g>
	<path class="st0" d="M47.6,7.9c-2.4-3.6-6.3-5.9-11.4-6.8c-1.7-0.2-3.4-0.4-5-0.4c-8.5,0-16,3.8-21.5,10.8
		C6.1,16.1,3.5,21.9,2,28.2c-1.5,6-1.5,12.3-0.2,17.5C2.9,50,6.6,56,11.9,56c1.6,0,4-0.6,6.2-3.4c1-1.2,1.7-2.3,2.3-3.4
		c1.8-2.8,2.5-3.8,4.1-3.8c0.4,0,0.7,0,1.2,0.1c1.2-3.8,2.4-7.3,2.9-8.3c0.4-1,1.2-2.4,2.3-4.2c-0.1-0.2-0.1-0.5-0.2-0.7
		c-0.6-2.1-0.4-4.5,0.7-7c1-2.5,2.7-4.6,4.7-6c1.8-1.3,3.9-2.1,5.8-2.1c0.4,0,0.6,0.1,1,0.2c0.5,0.2,1,0.6,1.3,1.1
		c0.5,0.8,0.5,1.8-0.1,2.7c-0.2,0.5-0.2,0.7,0.4,2.3c0.7,1.8,1.6,4.2,0.5,7.4c-1.3,3.6-3.5,5.3-5,5.9c-0.5,2.1-0.8,3.6-1.3,4.6
		c-0.1,0.2-0.4,0.8-0.7,1.5c1.9-1.5,3.8-3.3,5.3-5.6c3.9-5.2,6.4-11.7,6.9-17.7C50.5,15,49.7,11,47.6,7.9z M10.8,35.2
		c-2.3,0-4.2-1.9-4.2-4.2s1.9-4.2,4.2-4.2c2.3,0,4.2,1.9,4.2,4.2S13.1,35.2,10.8,35.2z M15.4,24c-2.3,0-4.2-1.9-4.2-4.2
		s1.9-4.2,4.2-4.2s4.2,1.9,4.2,4.2S17.9,24,15.4,24z M23.9,15.5c-2.3,0-4.2-1.9-4.2-4.2C19.7,9,21.6,7,23.9,7s4.2,1.9,4.2,4.2
		C28.1,13.5,26.3,15.5,23.9,15.5z M37.1,14.5c-2.3,0-4.2-1.9-4.2-4.2C32.9,8,34.8,6,37.1,6s4.2,1.9,4.2,4.2
		C41.3,12.6,39.4,14.5,37.1,14.5z"/>
	<path class="st1" d="M11.9,57C6,57,2,50.3,0.9,46.1c-1.3-5.6-1.2-12,0.2-17.9C2.6,21.7,5.4,15.8,9,11.1C14.8,3.9,22.5,0,31.3,0
		c1.6,0,3.4,0.1,5.1,0.4c5.3,0.8,9.4,3.3,12,7.1c2.2,3.3,3,7.4,2.7,12.2c-0.5,6.2-3,12.7-7,18.1c-1.5,2.2-3.4,4.1-5.4,5.7L35,46.2
		l2.3-3.8c0.2-0.4,0.5-0.8,0.6-1.1l0.1-0.2c0.5-0.8,0.7-2.3,1.2-4.2l0.1-0.6l0.4-0.1c0.7-0.2,3-1.6,4.5-5.4c1-2.8,0.2-4.8-0.5-6.8
		c-0.6-1.6-0.7-2.2-0.4-3l0.1-0.1c0.5-0.7,0.4-1.3,0.1-1.7c-0.2-0.4-0.6-0.6-1-0.7h-0.1c-0.2-0.1-0.4-0.1-0.5-0.1
		c-1.8,0-3.6,0.7-5.3,1.9c-2.1,1.5-3.5,3.4-4.5,5.7c-1,2.3-1.2,4.6-0.7,6.4c0.1,0.1,0.1,0.4,0.1,0.5c0,0.1,0,0.1,0,0.2l0.2,0.4
		l-0.2,0.1c-1,1.7-1.9,3.1-2.2,4.1C29,38.7,27.9,42,26.6,46l-0.2,0.7l-0.7-0.2c-0.4-0.1-0.7-0.1-1-0.1c-1.1,0-1.5,0.5-3.4,3.4
		c-0.6,1.1-1.3,2.3-2.3,3.5C16.3,56.5,13.4,57,11.9,57z M31.3,1.7c-8.2,0-15.5,3.6-20.8,10.4C7,16.6,4.3,22.3,2.9,28.4
		c-1.3,5.8-1.5,11.9-0.2,17.2c1,4,4.6,9.7,9.3,9.7c1.2,0,3.4-0.4,5.4-3c1-1.1,1.6-2.2,2.2-3.3c1.8-2.7,2.8-4.2,4.8-4.2
		c0.2,0,0.4,0,0.6,0c1.2-3.8,2.3-6.8,2.7-7.7c0.4-1,1.2-2.4,2.2-4c0-0.1,0-0.1,0-0.2v-0.1c-0.6-2.3-0.4-4.8,0.7-7.6
		c1-2.5,2.7-4.8,5-6.4c1.9-1.5,4.2-2.2,6.3-2.2c0.5,0,0.7,0.1,1.1,0.2l0.4,0.1c0.6,0.4,1.2,0.8,1.6,1.3c0.7,1.2,0.6,2.5-0.1,3.6
		c-0.1,0.1,0,0.4,0.4,1.6c0.6,1.6,1.7,4.4,0.5,8c-1.5,4-3.8,5.6-5.1,6.3c-0.2,0.8-0.4,1.7-0.6,2.3c0.8-1,1.7-1.9,2.4-2.9
		c3.8-5.1,6.3-11.5,6.8-17.3c0.4-4.5-0.5-8.2-2.4-11.2c-2.3-3.4-5.9-5.6-10.8-6.4C34.6,1.8,32.9,1.7,31.3,1.7z M10.8,36.2
		c-2.8,0-5.1-2.3-5.1-5.1c0-2.8,2.3-5.1,5.1-5.1c2.8,0,5.1,2.3,5.1,5.1C15.9,33.9,13.6,36.2,10.8,36.2z M10.8,27.7
		c-1.8,0-3.4,1.6-3.4,3.4s1.6,3.4,3.4,3.4c1.8,0,3.4-1.6,3.4-3.4S12.7,27.7,10.8,27.7z M15.4,24.9c-2.8,0-5.1-2.3-5.1-5.1
		c0-2.8,2.3-5.1,5.1-5.1c2.8,0,5.1,2.3,5.1,5.1C20.5,22.6,18.3,24.9,15.4,24.9z M15.4,16.5c-1.8,0-3.4,1.6-3.4,3.4
		c0,1.8,1.6,3.4,3.4,3.4c1.9,0,3.4-1.5,3.4-3.4S17.3,16.5,15.4,16.5z M23.9,16.5c-2.8,0-5.1-2.3-5.1-5.1c0-2.8,2.3-5.1,5.1-5.1
		S29,8.6,29,11.4C29,14.2,26.8,16.5,23.9,16.5z M23.9,8c-1.8,0-3.4,1.6-3.4,3.4c0,1.8,1.6,3.4,3.4,3.4c1.9,0,3.4-1.5,3.4-3.4
		C27.3,9.4,25.7,8,23.9,8z M37.1,15.5c-2.8,0-5.1-2.3-5.1-5.1c0-2.8,2.3-5.1,5.1-5.1c2.8,0,5.1,2.3,5.1,5.1
		C42.2,13.2,39.9,15.5,37.1,15.5z M37.1,7c-1.8,0-3.4,1.6-3.4,3.4c0,1.8,1.6,3.4,3.4,3.4c1.8,0,3.4-1.6,3.4-3.4
		C40.5,8.6,38.9,7,37.1,7z"/>
	<path class="st1" d="M38.2,36l-5.6-2.3l-0.1-0.1c-0.4-0.4-0.5-0.8-0.6-1.2v-0.1c-0.5-1.7-0.4-3.9,0.6-6.3c2.1-5.1,6.3-7.5,9.4-7.5
		h0.5l0.2,0.2c0.2,0.1,0.4,0.2,0.4,0.5c0.2,0.4,0.2,0.8-0.1,1.3c-0.6,1-0.4,1.8,0.2,3.4v0.1c0.6,1.6,1.5,3.6,0.5,6.3
		c-1.3,3.6-3.3,5-4.4,5.3c-0.1,0.1-0.4,0.1-0.5,0.1c-0.1,0-0.1,0-0.2,0L38.2,36z M33.7,32.4l4.6,1.8c0,0,0,0,0.1,0
		c-0.5-0.1-1-0.4-1.2-0.7C37,33,37,32.5,37,32.3c0-0.6,0.5-1,0.6-1.2l0.1-0.1c1.1-0.7,1.2-1.6,1.2-1.6c0-0.7,0.5-1.2,1.2-1.5h0.4
		h0.2c0.4,0,0.7,0,1,0.2c0.2,0.2,0.5,0.5,0.6,0.8c0.4-1.7-0.2-2.9-0.7-4.2l0.7-0.5l-0.8,0.4C41,23.3,40.4,22,41,20.6
		c-2.4,0.4-5.4,2.4-7,6.3c-0.8,2.1-1,3.8-0.6,5.1v0.1C33.6,32.1,33.6,32.3,33.7,32.4z M38.5,32.3C38.5,32.4,38.5,32.4,38.5,32.3
		c0,0.1,0.1,0.1,0.1,0c1.7-1.1,1.9-2.8,1.9-2.9h-0.1C40.5,30.1,40,31.3,38.5,32.3z"/>
	<path class="st1" d="M26.2,60c-0.4,0-0.7-0.1-1.1-0.2c-1.5-0.5-2.3-2.1-1.7-3.6l0.2-0.6c3.4-10.3,5.4-16.5,6-17.8
		c0.5-1,1.3-2.7,2.3-4l0.4-0.6l6.4,2.5l-0.2,1.1c-0.4,1.5-0.7,3-1.2,4.1c-0.8,2.1-7.9,16.6-8.3,17.4C28.4,59.4,27.4,60,26.2,60z
		 M31.3,38.5c-0.5,1.3-2.7,7.6-5.9,17.7l-0.2,0.6c-0.2,0.6,0,1.2,0.7,1.5c0.6,0.2,1.3,0,1.6-0.5c0.4-0.6,7.5-15,8.3-17.2
		c0.4-0.8,0.7-2.2,1-3.5L33,35.4C32.3,36.4,31.7,37.6,31.3,38.5z"/>
</g>
</svg>
