<?xml version="1.0" encoding="utf-8"?>
<!-- Generator: Adobe Illustrator 23.0.1, SVG Export Plug-In . SVG Version: 6.00 Build 0)  -->
<svg version="1.1" id="Слой_1" xmlns="http://www.w3.org/2000/svg" xmlns:xlink="http://www.w3.org/1999/xlink" x="0px" y="0px"
	 viewBox="0 0 59.2 60" style="enable-background:new 0 0 59.2 60;" xml:space="preserve">
<style type="text/css">
	.st0{fill:none;}
	.st1{fill-rule:evenodd;clip-rule:evenodd;fill:#00A4B5;}
	.st2{fill:#003333;}
</style>
<g>
	<rect class="st0" width="59.2" height="60"/>
	<path class="st1" d="M29.6,4.9l27.8,10v-3.1l-27.8-10l-27.8,10v3.1L29.6,4.9z"/>
	<path class="st2" d="M6.3,54.8c0,0.1,0,0.2,0.1,0.3c0.1,0.1,0.2,0.1,0.3,0.1h20.7v0.9c0,0.6,0.2,1.2,0.6,1.6c0.4,0.4,1,0.6,1.6,0.6
		c0.6,0,1.2-0.2,1.6-0.6c0.4-0.4,0.6-1,0.6-1.6v-0.9h20.7c0.1,0,0.2,0,0.3-0.1c0.1-0.1,0.1-0.2,0.1-0.3v-1.3H32.5
		c-0.1,0.5-0.4,0.9-0.7,1.2c-0.5,0.5-1.3,0.8-2.1,0.8c-0.8,0-1.5-0.3-2.1-0.8c-0.3-0.3-0.6-0.7-0.7-1.2H6.3V54.8z M5.1,56.3
		c-0.4-0.4-0.6-0.9-0.6-1.5v-1.3H2.8V20.2h25.6v0.9c0,0.3,0.1,0.6,0.4,0.8c0.2,0.2,0.5,0.4,0.8,0.4c0.3,0,0.6-0.1,0.8-0.4
		c0.2-0.2,0.4-0.5,0.4-0.8v-0.9h25.6v33.2h-1.7v1.3c0,0.6-0.2,1.1-0.6,1.5c-0.4,0.4-0.9,0.6-1.5,0.6h-19c-0.2,0.7-0.5,1.4-1.1,2
		c-0.7,0.7-1.7,1.1-2.9,1.1s-2.2-0.4-2.9-1.1c-0.5-0.5-0.9-1.2-1.1-2H6.7C6.1,56.9,5.5,56.7,5.1,56.3z M30.5,23.9v29.5
		c0.2-0.2,0.3-0.5,0.3-0.8v-0.9h23.8V22H32.5c-0.1,0.5-0.4,0.9-0.7,1.2C31.3,23.5,30.9,23.8,30.5,23.9z M28.8,53.4V24
		c-0.5-0.1-0.9-0.4-1.2-0.7c-0.3-0.3-0.6-0.7-0.7-1.2H4.5v29.7h23.8v0.9C28.4,52.9,28.5,53.2,28.8,53.4z M29.6,6.8L0,17.4v-6.8
		C9.9,7.1,19.7,3.5,29.6,0c9.9,3.5,19.7,7.1,29.6,10.6v6.8L29.6,6.8z M1.7,14.9l27.8-10l27.8,10v-3.1l-27.8-10l-27.8,10V14.9z"/>
</g>
</svg>
