<?xml version="1.0" encoding="utf-8"?>
<!-- Generator: Adobe Illustrator 23.0.1, SVG Export Plug-In . SVG Version: 6.00 Build 0)  -->
<svg version="1.1" id="Слой_1" xmlns="http://www.w3.org/2000/svg" xmlns:xlink="http://www.w3.org/1999/xlink" x="0px" y="0px"
	 viewBox="0 0 64.5 60" style="enable-background:new 0 0 64.5 60;" xml:space="preserve">
<style type="text/css">
	.st0{clip-path:url(#SVGID_2_);}
	.st1{fill:#00A4B5;}
	.st2{fill:#003333;}
</style>
<g>
	<defs>
		<rect id="SVGID_1_" width="64.5" height="60"/>
	</defs>
	<clipPath id="SVGID_2_">
		<use xlink:href="#SVGID_1_"  style="overflow:visible;"/>
	</clipPath>
	<g class="st0">
		<path class="st1" d="M60.7,20.1H38.5c-0.2,4.1-1.5,8.1-3.8,11.6c0,0,0,0,0.1,0.1c0.7,0.6,1.6,0.9,2.5,0.9c0.9,0,1.8-0.3,2.5-0.9
			c0.5-0.5,1.3-0.4,1.8,0.1c0.5,0.5,0.4,1.3-0.1,1.8c-1.1,1-2.6,1.6-4.2,1.6c-1.5,0-2.9-0.5-4-1.5c-1.3,1.7-2.9,3.2-4.7,4.5
			c0.6,7.8,5.7,14.8,13.3,18.1l1.9,0.8c0.9,0.4,2,0.4,3,0l1.9-0.8c8-3.4,13.3-11.3,13.3-19.7V21.4C62,20.7,61.4,20.1,60.7,20.1z
			 M47.7,22.7h7.6c0.7,0,1.3,0.6,1.3,1.3c0,0.7-0.6,1.3-1.3,1.3h-7.6c-0.7,0-1.3-0.6-1.3-1.3C46.5,23.2,47,22.7,47.7,22.7z
			 M41.4,23.9c0-0.7,0.6-1.3,1.3-1.3c0.7,0,1.3,0.6,1.3,1.3c0,0.7-0.6,1.3-1.3,1.3C42,25.2,41.4,24.6,41.4,23.9z M52.8,50.4H37.6
			c-0.7,0-1.3-0.6-1.3-1.3c0-4.9,4-8.8,8.8-8.8c4.9,0,8.8,4,8.8,8.8C54,49.8,53.5,50.4,52.8,50.4z M56.9,33.7
			c-1.1,1-2.6,1.6-4.2,1.6c-1.5,0-3-0.6-4.2-1.6c-0.5-0.5-0.6-1.3-0.1-1.8c0.5-0.5,1.3-0.6,1.8-0.1c0.7,0.6,1.6,0.9,2.5,0.9
			s1.8-0.3,2.5-0.9c0.5-0.5,1.3-0.4,1.8,0.1C57.5,32.4,57.4,33.2,56.9,33.7z"/>
		<path class="st2" d="M42.7,25.2c0.7,0,1.3-0.6,1.3-1.3c0-0.7-0.6-1.3-1.3-1.3s-1.3,0.6-1.3,1.3C41.4,24.6,42,25.2,42.7,25.2z"/>
		<path class="st2" d="M9.2,7.6c0.7,0,1.3-0.6,1.3-1.3S9.9,5,9.2,5C8.5,5,7.9,5.6,7.9,6.3S8.5,7.6,9.2,7.6z"/>
		<path class="st2" d="M60.7,17.6H38.5V3.8c0-2.1-1.7-3.8-3.8-3.8h-31C1.7,0,0,1.7,0,3.8v15.3c0,9.5,6,18.2,14.9,22l1.9,0.8
			c1.6,0.7,3.4,0.7,5,0l1.9-0.8c0.9-0.4,1.7-0.8,2.5-1.2c1.1,8.2,6.7,15.5,14.7,18.9l1.9,0.8c1.6,0.7,3.4,0.7,5,0l1.9-0.8
			c8.9-3.8,14.9-12.5,14.9-22V21.4C64.5,19.3,62.8,17.6,60.7,17.6z M22.7,38.7l-1.9,0.8c-0.9,0.4-2,0.4-3,0l-1.9-0.8
			c-8-3.4-13.3-11.3-13.3-19.7V3.8c0-0.7,0.6-1.3,1.3-1.3h31c0.7,0,1.3,0.6,1.3,1.3v15.3C36,27.7,30.5,35.4,22.7,38.7z M62,36.7
			c0,8.3-5.4,16.3-13.3,19.7l-1.9,0.8c-0.9,0.4-2,0.4-3,0l-1.9-0.8c-7.5-3.2-12.7-10.3-13.3-18.1c1.8-1.3,3.4-2.8,4.7-4.5
			c1.1,0.9,2.6,1.5,4,1.5c1.5,0,3-0.6,4.2-1.6c0.5-0.5,0.6-1.3,0.1-1.8c-0.5-0.5-1.3-0.6-1.8-0.1c-0.7,0.6-1.6,0.9-2.5,0.9
			c-0.9,0-1.8-0.3-2.5-0.9c0,0,0,0-0.1-0.1c2.3-3.5,3.6-7.5,3.8-11.6h22.1c0.7,0,1.3,0.6,1.3,1.3V36.7z"/>
		<path class="st2" d="M26.8,22.7H11.7c-0.7,0-1.3,0.6-1.3,1.3c0,4.9,4,8.8,8.8,8.8c4.9,0,8.8-4,8.8-8.8
			C28.1,23.2,27.5,22.7,26.8,22.7z M19.3,30.2c-3,0-5.6-2.2-6.2-5h12.3C24.8,28.1,22.3,30.2,19.3,30.2z"/>
		<path class="st2" d="M11.7,15.1c0.9,0,1.8,0.3,2.5,0.9c0.5,0.5,1.3,0.4,1.8-0.1c0.5-0.5,0.4-1.3-0.1-1.8c-1.1-1-2.6-1.6-4.2-1.6
			s-3,0.6-4.2,1.6C7,14.6,7,15.4,7.4,15.9c0.5,0.5,1.3,0.6,1.8,0.1C9.9,15.5,10.8,15.1,11.7,15.1z"/>
		<path class="st2" d="M22.7,14.2c-0.5,0.5-0.6,1.3-0.1,1.8c0.5,0.5,1.3,0.6,1.8,0.1c0.7-0.6,1.6-0.9,2.5-0.9c0.9,0,1.8,0.3,2.5,0.9
			c0.5,0.5,1.3,0.4,1.8-0.1c0.5-0.5,0.4-1.3-0.1-1.8c-1.1-1-2.6-1.6-4.2-1.6S23.8,13.1,22.7,14.2z"/>
		<path class="st2" d="M14.2,7.6h15.1c0.7,0,1.3-0.6,1.3-1.3S30,5,29.3,5H14.2C13.5,5,13,5.6,13,6.3S13.5,7.6,14.2,7.6z"/>
		<path class="st2" d="M45.2,40.3c-4.9,0-8.8,4-8.8,8.8c0,0.7,0.6,1.3,1.3,1.3h15.1c0.7,0,1.3-0.6,1.3-1.3
			C54,44.2,50.1,40.3,45.2,40.3z M39,47.8c0.6-2.9,3.1-5,6.2-5c3,0,5.6,2.2,6.2,5H39z"/>
		<path class="st2" d="M56.9,33.7c-1.1,1-2.6,1.6-4.2,1.6c-1.5,0-3-0.6-4.2-1.6c-0.5-0.5-0.6-1.3-0.1-1.8c0.5-0.5,1.3-0.6,1.8-0.1
			c0.7,0.6,1.6,0.9,2.5,0.9s1.8-0.3,2.5-0.9c0.5-0.5,1.3-0.4,1.8,0.1C57.5,32.4,57.4,33.2,56.9,33.7z"/>
		<path class="st2" d="M56.5,23.9c0,0.7-0.6,1.3-1.3,1.3h-7.6c-0.7,0-1.3-0.6-1.3-1.3c0-0.7,0.6-1.3,1.3-1.3h7.6
			C56,22.7,56.5,23.2,56.5,23.9z"/>
	</g>
</g>
</svg>
