<?xml version="1.0" encoding="utf-8"?>
<!-- Generator: Adobe Illustrator 23.0.1, SVG Export Plug-In . SVG Version: 6.00 Build 0)  -->
<svg version="1.1" id="Слой_1" xmlns="http://www.w3.org/2000/svg" xmlns:xlink="http://www.w3.org/1999/xlink" x="0px" y="0px"
	 viewBox="0 0 47.7 60" style="enable-background:new 0 0 47.7 60;" xml:space="preserve">
<style type="text/css">
	.st0{fill:none;}
	.st1{fill:#003333;}
	.st2{fill-rule:evenodd;clip-rule:evenodd;fill:#00A4B5;}
	.st3{fill-rule:evenodd;clip-rule:evenodd;fill:#003333;}
</style>
<g>
	<rect x="0.1" class="st0" width="47.6" height="60"/>
	<path class="st1" d="M24,28.1c-1,0-3.2-0.1-4.5-1.5c-0.3-0.3-0.3-1,0-1.3c0.3-0.3,1-0.3,1.3,0c0.6,0.6,2,0.9,3.1,0.9
		c1.1,0,2.6-0.2,3.1-0.9c0.3-0.3,1-0.4,1.3,0c0.3,0.3,0.4,1,0,1.3C27.2,28,24.9,28.1,24,28.1z"/>
	<path class="st1" d="M42,28.2c-0.3,0-0.5-0.1-0.7-0.3c-0.2-0.2-0.2-0.5-0.1-0.9c0-0.1,0.1-0.3,0.1-0.5v-0.1
		c0.5-2.1,0.9-4.5,0.9-6.9c0-0.2,0-0.3,0-0.5c0-0.3,0.1-0.5,0.4-0.7c0.2-0.2,0.5-0.2,0.9-0.1c1.5,0.5,2.7,1.4,3.4,2.5
		c1.3,1.8,1.2,3.9-0.1,5.5c0,0,0,0.1-0.1,0.1C45.7,27.3,44.1,28,42,28.2C42.1,28.2,42.1,28.2,42,28.2z M44,20.4
		c-0.1,2-0.3,4-0.7,5.9c0.9-0.2,1.5-0.6,1.9-1.1c0,0,0,0,0.1-0.1c0.9-1,0.9-2.2,0.1-3.4C45.1,21.1,44.5,20.7,44,20.4z"/>
	<path class="st2" d="M46.1,21c-0.6-0.9-1.6-1.6-3-2.1C34.8,17.3,25.6,9,24,6.4V1C38.7,1,46.1,14.9,46.1,21z"/>
	<path class="st1" d="M46.1,22c-0.3,0-0.5-0.1-0.7-0.4c-0.5-0.7-1.4-1.4-2.5-1.7C34.2,18,24.8,9.6,23.2,6.9
		c-0.1-0.1-0.1-0.3-0.1-0.5V1c0-0.5,0.4-1,1-1c7.8,0,13,3.7,16.1,6.8C44.9,11.6,47,17.6,47,21c0,0.4-0.2,0.7-0.6,0.9
		C46.2,22,46.2,22,46.1,22z M24.8,6.2C26.6,8.7,35.5,16.4,43.3,18h0.1c0.5,0.2,1.1,0.4,1.5,0.6c-0.7-3.2-2.8-7.4-6.2-10.7
		C36,5.3,31.4,2.1,24.8,1.8V6.2z"/>
	<path class="st2" d="M46,25.6c0-0.5-0.7,9.9-7.2,16.4c-0.4-1-0.9-1.9-1.3-2.8c-0.2-0.3-0.3-0.7-0.5-1.1c-0.3-0.6-0.6-1.2-0.7-1.5
		c-0.1-0.1-0.1-0.2-0.2-0.3l0.1-0.2c2.6-2.1,4.6-5.1,5.8-9C43.9,27.1,45.2,26.4,46,25.6z"/>
	<path class="st1" d="M38.8,42.9c-0.1,0-0.1,0-0.2,0c-0.3-0.1-0.5-0.2-0.6-0.5c-0.3-0.9-0.7-1.7-1.2-2.7c-0.1-0.2-0.2-0.4-0.3-0.7
		l-0.1-0.3c-0.3-0.6-0.5-1.1-0.7-1.4l-0.1-0.1c-0.2-0.3-0.2-0.7,0-1.1l0.1-0.2c0-0.1,0.1-0.1,0.2-0.2c2.6-2.1,4.4-5,5.4-8.5
		c0.1-0.3,0.4-0.6,0.7-0.6c1.5-0.2,2.7-0.6,3.4-1.5c0.2-0.2,0.4-0.3,0.7-0.3c0.5,0,0.9,0.4,0.9,1v0.1c-0.2,1.9-1.5,11-7.5,16.9
		C39.2,42.8,39,42.9,38.8,42.9z M37.2,36.7c0.2,0.3,0.4,0.7,0.6,1.2l0.2,0.3c0.1,0.2,0.2,0.4,0.3,0.7c0.2,0.5,0.5,1.1,0.7,1.5
		c3.6-4.3,5.1-9.8,5.8-12.8c-0.6,0.3-1.3,0.5-2,0.6C41.6,31.5,39.7,34.4,37.2,36.7z"/>
	<path class="st1" d="M5.8,28.2C5.8,28.2,5.7,28.2,5.8,28.2c-2-0.2-3.6-1-4.7-2l-0.1-0.1c-1.4-1.6-1.4-3.7-0.1-5.5
		c0.7-1.1,1.9-1.9,3.4-2.5C4.7,18,4.9,18,5.2,18.2c0.2,0.2,0.4,0.4,0.4,0.7c0,0.2,0,0.4,0,0.5c0,2.6,0.3,4.9,0.9,7v0.1
		c0,0.2,0.1,0.3,0.1,0.5c0.1,0.3,0,0.6-0.1,0.9C6.4,28.1,6.2,28.2,5.8,28.2z M2.7,25c0.4,0.5,1.2,0.9,1.9,1.2
		c-0.4-1.8-0.6-3.7-0.7-5.9c-0.5,0.3-1,0.7-1.4,1.2C1.7,22.7,1.7,24,2.7,25C2.5,24.9,2.7,25,2.7,25z"/>
	<path class="st2" d="M24,1v5.5C22.4,9.1,13.1,17.3,4.8,19c-1.4,0.4-2.3,1.3-3,2.1C1.7,14.9,9.2,1,24,1z"/>
	<path class="st1" d="M1.8,22c-0.1,0-0.2,0-0.3,0c-0.4-0.1-0.6-0.4-0.6-0.9c0-3.5,2.1-9.5,6.9-14.3C10.9,3.7,16.2,0,24,0
		c0.5,0,1,0.4,1,1v5.5c0,0.2,0,0.3-0.1,0.5C23.1,9.5,13.6,18,5,19.8c-1.1,0.4-1.9,1-2.5,1.8C2.3,21.8,2,22,1.8,22z M23,1.8
		C16.4,2.1,11.8,5.3,9.2,8.1C5.7,11.5,3.7,15.7,3,18.8c0.4-0.3,1-0.5,1.5-0.7h0.1C12.3,16.4,21.2,8.7,23,6.2V1.8z"/>
	<path class="st2" d="M11.8,36.6c-0.1,0.1-0.2,0.4-0.4,0.7c-0.1,0.2-0.2,0.3-0.3,0.5c-0.5,1.1-1.3,2.6-2,4.2
		c-6.5-6.5-7.1-16-7.2-16.4c0.7,0.9,2.1,1.6,3.9,1.8c1.2,3.8,3.3,6.8,5.8,9L11.8,36.6z"/>
	<path class="st1" d="M9,42.9c-0.2,0-0.4-0.1-0.6-0.2c-6.8-6.8-7.5-16.9-7.5-17.1c0-0.4,0.2-0.7,0.5-0.9c0.3-0.1,0.7,0,1.1,0.2
		c0.7,0.7,1.9,1.3,3.4,1.5c0.4,0,0.7,0.3,0.7,0.7c1.1,3.4,2.9,6.3,5.4,8.4c0.1,0.1,0.1,0.1,0.2,0.2l0.1,0.2c0.2,0.3,0.2,0.6,0,1
		c-0.1,0.1-0.2,0.3-0.4,0.6c-0.1,0.1-0.1,0.3-0.2,0.5c-0.3,0.6-1.2,2.2-2,4.2c-0.1,0.3-0.3,0.5-0.6,0.5C9.2,42.9,9.2,42.9,9,42.9z
		 M3.1,27.5c0.5,2.9,1.9,8.4,5.8,12.9c0.6-1.4,1.2-2.5,1.5-3c0,0,0-0.1,0.1-0.1c0.1-0.2,0.2-0.3,0.2-0.4c0-0.1,0.1-0.1,0.1-0.2
		c-2.6-2.2-4.4-5.1-5.5-8.5C4.4,28,3.6,27.8,3.1,27.5z"/>
	<path class="st3" d="M34.6,21.5c0,1-0.9,1.8-1.8,1.8c-1,0-1.8-0.9-1.8-1.8c0-1.1,0.9-1.8,1.8-1.8C33.9,19.7,34.6,20.6,34.6,21.5z"
		/>
	<path class="st1" d="M44,19c0-0.4-0.3-0.9-0.7-0.9c-8-1.7-17.2-9.8-18.5-12.1c-0.2-0.2-0.4-0.4-0.7-0.4c-0.3,0-0.6,0.1-0.7,0.4
		C21.8,8.3,12.7,16.4,4.6,18c-0.4,0.1-0.7,0.4-0.7,0.9c0,0,0,0.3,0,0.4v0.1c0,2.7,0.3,5.1,1,7.4C4.9,27,4.9,27.2,5,27.4v0.1
		c1.2,3.7,3.2,6.8,6,9.3c0,0,0.2,0.2,0.7,0.6c0.1-0.6,0.3-1.2,0.6-1.7l-0.1-0.1c-2.6-2.1-4.4-5-5.4-8.4v-0.1c0-0.1-0.1-0.3-0.1-0.5
		c0,0,0,0,0-0.1c-0.5-2-0.9-4.4-0.9-6.8c7.6-1.8,15.6-8.5,18.3-11.7c2.8,3.2,10.7,9.9,18.3,11.7c0,2.5-0.3,4.8-0.9,6.8
		c0,0,0,0,0,0.1c0,0.2-0.1,0.4-0.1,0.5v0.1c-1.1,3.4-2.9,6.2-5.4,8.4c0.3,0.5,0.5,1.1,0.7,1.6c3.8-3.2,5.8-7.5,6.4-9.6
		c0,0,0,0,0-0.1c0.1-0.2,0.1-0.4,0.2-0.6c0.6-2.2,1-4.7,1-7.4v-0.1C44,19.3,44,19,44,19z"/>
	<path class="st3" d="M16.8,21.5c0,1-0.9,1.8-1.8,1.8c-1.1,0-1.8-0.9-1.8-1.8c0-1.1,0.9-1.8,1.8-1.8C16.1,19.7,16.8,20.6,16.8,21.5z
		"/>
	<path class="st3" d="M25.7,44c-0.2,0.3-1,0.4-1.7,0.4c-0.7,0-1.5-0.2-1.7-0.4c-0.3-0.4-1-0.4-1.3,0c-0.4,0.3-0.4,1,0,1.3
		c0.9,0.9,2.2,1.1,3.1,1.1c0.7,0,2.2-0.1,3.1-1.1c0.3-0.4,0.3-1,0-1.3C26.6,43.6,26,43.6,25.7,44z"/>
	<path class="st3" d="M18,40.6c-0.7,0-1.3,0.5-1.3,1.3c0,0.7,0.5,1.3,1.3,1.3s1.3-0.5,1.3-1.3C19.3,41.2,18.7,40.6,18,40.6z"/>
	<path class="st1" d="M29.8,43.2c0.7,0,1.3-0.6,1.3-1.3c0-0.7-0.6-1.3-1.3-1.3c-0.7,0-1.3,0.6-1.3,1.3
		C28.5,42.6,29.1,43.2,29.8,43.2z"/>
	<path class="st1" d="M39.6,41.7L38,42.4c2.8,6.2,4.4,11.6,4.6,15.8H24H5.3c0.2-4.2,1.8-9.6,4.6-15.8l-1.6-0.7
		c-3.2,7-4.8,12.9-4.8,17.4c0,0.5,0.4,0.9,0.9,0.9h19.5h19.5c0.5,0,0.9-0.4,0.9-0.9C44.3,54.6,42.7,48.7,39.6,41.7z"/>
	<path class="st3" d="M37.5,38.9c-0.1-0.4-0.1-0.8-0.2-1c-1.2-4.3-5.3-9.2-13.3-9.2s-12.2,4.9-13.2,9.2c-0.1,0.2-0.1,0.6-0.2,1
		c-1.5,0.6-2.3,2.2-2.1,3.9c0.2,1.7,1.5,3.6,4,3.9c0.8,1.9,1.9,3.3,3,4.3c-2.2,3.6-2.9,5.8-2.1,6.9c0.6,1,1.6,1.1,3,1.1h15.5
		c1.4,0,2.3,0,3-1.1c0.8-1.2,0.1-3.4-2.1-6.9c1.1-1,2.1-2.3,3-4.3c2.5-0.3,3.7-2.2,4-3.9C39.7,41,38.9,39.5,37.5,38.9z M9.9,42.6
		c-0.1-0.6,0.1-1.5,0.6-2c0,0.2,0.1,0.3,0.2,0.5c0.1,0.2,0.2,0.3,0.4,0.5c0,1.4,0.2,2.5,0.4,3.5C10.4,44.5,10,43.5,9.9,42.6z
		 M33.5,57.2c-0.2,0.3-0.3,0.4-1.7,0.4H16.3c-1.4,0-1.6-0.1-1.7-0.4c-0.1-0.2-0.5-1.2,2-5.2c4.7,2.9,9.7,3.1,15.2,0
		C34,56.1,33.6,57,33.5,57.2z M31.1,50.3c-1.9,1.6-4.5,2.5-7.1,2.5c-1.4,0-2.7-0.2-3.9-0.6c-1.2-0.4-2.2-1.1-3.2-1.8
		c-2.6-2-3.9-5.2-4.1-9.1l3.3-3.5c0.8,0.5,2.1,1.4,3.1,1.8c1.8,0.9,8,0.9,9.8,0c1-0.4,2.3-1.3,3.1-1.8c0.8,1.1,2.1,2.8,3.3,3.4
		C35.1,45.2,33.7,48.3,31.1,50.3z M36,40c0,0-3.6-3.9-3.7-3.9c-0.2,0-2.8,1.6-4,2.2c-1.4,0.6-7.2,0.6-8.5,0c-1.3-0.6-3.8-2.2-4-2.2
		s-3.7,3.8-3.7,3.8c-0.1-0.4,0.1-2,1.2-4c1.2-2.1,4.3-5.7,10.9-5.7s9.7,3.6,10.9,5.7C35.9,37.8,36.1,39.4,36,40z M38,42.6
		c-0.1,0.8-0.6,1.9-1.7,2.5c0.2-1,0.3-2.1,0.4-3.5c0.2-0.1,0.3-0.3,0.4-0.5c0.1-0.1,0.1-0.3,0.2-0.5C38,41.1,38.1,42,38,42.6z"/>
	<path class="st2" d="M36,40c0,0-3.6-3.9-3.7-3.9c-0.2,0-2.8,1.6-4,2.2c-1.4,0.6-7.2,0.6-8.5,0c-1.3-0.6-3.8-2.2-4-2.2
		s-3.7,3.8-3.7,3.8c-0.1-0.4,0.1-2,1.2-4c1.2-2.1,4.3-5.7,10.9-5.7s9.7,3.6,10.9,5.7C35.9,37.8,36.1,39.4,36,40z"/>
</g>
</svg>
