<?xml version="1.0" encoding="utf-8"?>
<!-- Generator: Adobe Illustrator 23.0.1, SVG Export Plug-In . SVG Version: 6.00 Build 0)  -->
<svg version="1.1" id="Слой_1" xmlns="http://www.w3.org/2000/svg" xmlns:xlink="http://www.w3.org/1999/xlink" x="0px" y="0px"
	 viewBox="0 0 51.3 60" style="enable-background:new 0 0 51.3 60;" xml:space="preserve">
<style type="text/css">
	.st0{fill:#003333;}
	.st1{fill-rule:evenodd;clip-rule:evenodd;fill:#00A4B5;}
</style>
<g>
	<path class="st0" d="M45.3,13.7l-0.1-0.7c-0.2-1.5,0.3-3.1,1.7-4.8c1.2-1.4,2-2.6,2-3.8c0-1.4-0.9-2.4-2.7-2.4
		c-1,0-2.1,0.3-2.8,0.8L42.8,1c0.9-0.6,2.5-1,3.9-1c3.2,0,4.6,2,4.6,4.1c0,1.8-1,3.2-2.4,4.8c-1.2,1.4-1.6,2.7-1.5,4.1v0.7h-2.2
		V13.7z M44.7,17.6c0-1,0.7-1.7,1.6-1.7c0.9,0,1.6,0.7,1.6,1.7c0,0.9-0.6,1.7-1.6,1.7C45.4,19.2,44.7,18.5,44.7,17.6z"/>
	<path class="st0" d="M23.5,13.7l-0.1-0.7c-0.2-1.5,0.3-3.1,1.7-4.8c1.2-1.4,2-2.5,2-3.7c0-1.4-0.9-2.4-2.7-2.4
		c-1,0-2.1,0.3-2.8,0.8L21,1.1C21.8,0.4,23.5,0,24.9,0c3.2,0,4.6,2,4.6,4.1c0,1.8-1,3.2-2.4,4.8c-1.2,1.4-1.6,2.7-1.5,4.1v0.7h-2.2
		V13.7z M22.9,17.6c0-1,0.7-1.7,1.6-1.7c0.9,0,1.6,0.7,1.6,1.7c0,0.9-0.6,1.7-1.6,1.7C23.5,19.2,22.9,18.5,22.9,17.6z"/>
	<path class="st0" d="M3.7,13.7l-0.1-0.7c-0.2-1.5,0.3-3.1,1.7-4.8c1.2-1.4,2-2.6,2-3.8C7.3,2.9,6.3,2,4.6,2c-1,0-2.1,0.3-2.8,0.8
		L1.2,1.1C2.1,0.4,3.7,0,5.1,0c3.2,0,4.6,2,4.6,4.1c0,1.8-1,3.2-2.4,4.8c-1.2,1.4-1.6,2.7-1.5,4.1v0.7H3.7V13.7z M3,17.6
		c0-1,0.7-1.7,1.6-1.7c0.9,0,1.6,0.7,1.6,1.7c0,0.9-0.6,1.7-1.6,1.7C3.7,19.2,3,18.5,3,17.6z"/>
	<path class="st0" d="M35.3,43.7c-2.4,0-4.7-0.6-6.5-1.7l0.7-1.2c1.6,1,3.7,1.5,5.8,1.5c2.6,0,5.1-0.9,7.1-2.4
		c2.5-2.1,3.9-5.1,4-8.9c-1.2-0.6-2.5-2.3-3.3-3.4c-0.8,0.5-2.1,1.4-3,1.8c-1.7,0.8-7.8,0.8-9.5,0c-0.9-0.4-2.3-1.3-3-1.8
		c-0.7,1.1-2.1,2.8-3.3,3.4c0,0.6,0.1,1.2,0.2,1.8l-1.4,0.2c-0.1-0.8-0.2-1.6-0.2-2.5c0-0.4,0.3-0.6,0.6-0.7
		c0.6-0.1,2.2-1.9,3.3-3.6c0.1-0.2,0.3-0.3,0.5-0.3c0.2,0,0.4,0,0.5,0.1c0,0,2.1,1.5,3.4,2.1c1.4,0.6,7,0.6,8.3,0
		c1.3-0.6,3.4-2.1,3.4-2.1c0.2-0.1,0.4-0.2,0.5-0.1c0.2,0,0.4,0.1,0.5,0.3c1.1,1.7,2.7,3.5,3.3,3.6c0.4,0.1,0.6,0.4,0.6,0.7
		c-0.1,4.5-1.6,8-4.6,10.5C41.1,42.7,38.3,43.7,35.3,43.7z"/>
	<path class="st1" d="M47.4,30.4c-0.1,0.1-0.2,0.1-0.4,0.1c-1.3-0.2-3.8-3.9-3.8-3.9s-2.2,1.5-3.5,2.2c-1.5,0.7-7.4,0.7-8.9,0
		c-1.3-0.6-3.5-2.2-3.5-2.2s-2.5,3.7-3.8,3.9c-0.1,0-0.3,0-0.4-0.1c-1.3-0.8,1-11,12.1-11C46.4,19.4,48.9,29.6,47.4,30.4z"/>
	<path class="st0" d="M47,31.2c0,0-0.1,0-0.1,0c-1.3-0.2-3-2.4-3.9-3.6c-0.8,0.5-2.1,1.4-3,1.8c-1.7,0.8-7.8,0.8-9.5,0
		c-1-0.4-2.3-1.3-3-1.8c-0.9,1.2-2.6,3.4-3.9,3.6c0,0-0.1,0-0.1,0c-0.2,0-0.5,0-0.8-0.2c-1-0.7-0.5-2.8-0.3-3.5
		c1.1-4.1,5.2-8.8,12.9-8.8c8.4,0,12.2,5.6,13.1,8.9c0.4,1.6,0.3,2.9-0.4,3.3C47.6,31.2,47.3,31.2,47,31.2z M23.6,29.9
		C23.6,29.9,23.6,29.9,23.6,29.9C23.6,29.9,23.6,29.9,23.6,29.9z M43.2,25.9c0,0,0.1,0,0.1,0c0.2,0,0.4,0.1,0.5,0.3
		c1.1,1.6,2.6,3.3,3.2,3.6c0.1-0.4,0.1-1.9-0.9-3.8c-1-1.8-3.9-5.9-10.9-5.9c-6.5,0-9.4,3.5-10.6,5.7c-1.1,1.9-1.2,3.5-1.1,4
		c0.7-0.2,2.2-2,3.2-3.6c0.1-0.2,0.3-0.3,0.5-0.3c0.2,0,0.4,0,0.5,0.1c0,0,2.1,1.5,3.4,2.1c1.4,0.6,7,0.6,8.3,0
		c1.3-0.6,3.4-2.1,3.4-2.1C42.9,25.9,43.1,25.9,43.2,25.9z"/>
	<path class="st0" d="M4.1,47C4,47,4,47,4.1,47c-2.6-0.3-3.9-2.2-4-3.9c-0.2-1.8,0.7-3.4,2.4-3.9c0.2-0.1,0.5,0,0.6,0.1
		c0.2,0.1,0.3,0.3,0.3,0.6c0,0.4,0.1,0.7,0.2,0.8c0.1,0.1,0.2,0.1,0.2,0.2C4,41,4.2,41.2,4.2,41.5c0,2,0.2,3.6,0.6,4.6
		c0.1,0.2,0,0.5-0.1,0.7C4.5,46.9,4.3,47,4.1,47z M2.1,41c-0.6,0.5-0.7,1.3-0.7,2c0.1,0.9,0.6,1.9,1.6,2.4c-0.2-0.9-0.3-2.1-0.3-3.4
		c-0.2-0.1-0.3-0.3-0.4-0.5C2.2,41.3,2.2,41.1,2.1,41z"/>
	<path class="st0" d="M22.7,60H7.6c-1.3,0-2.1-0.1-2.9-1c-1.1-1.5,0.4-4.4,2.1-7c0.1-0.2,0.2-0.3,0.2-0.4c0.1-0.2,0.4-0.4,0.6-0.4
		h0.1c0.2,0,0.3,0.1,0.4,0.2c1.9,1.6,4.4,2.4,7,2.4s5-0.9,7-2.4c0.1-0.1,0.3-0.2,0.4-0.2h0.1c0.2,0,0.4,0.1,0.6,0.3
		c1.2,1.6,3.7,5.6,2.5,7.4v0C25,59.9,24.1,60,22.7,60z M7.8,53c-2.4,3.9-2.2,4.9-2,5.2c0.3,0.3,0.5,0.4,1.8,0.4h15.1
		c1.4,0,1.6-0.1,1.8-0.4c0,0,0,0,0,0c0.4-0.6-0.5-2.9-2.1-5.2c-2.1,1.5-4.7,2.3-7.3,2.3C12.4,55.3,9.9,54.5,7.8,53z"/>
	<path class="st0" d="M35.3,35.8c-0.8,0-2.1-0.1-3-1c-0.3-0.3-0.3-0.9,0-1.3c0.3-0.3,0.9-0.3,1.3,0c0.3,0.3,0.9,0.5,1.7,0.5
		c0.8,0,1.4-0.2,1.7-0.5c0.3-0.3,0.9-0.4,1.3,0c0.3,0.3,0.3,0.9,0,1.3C37.4,35.7,36.1,35.8,35.3,35.8z"/>
	<path class="st0" d="M42.9,48.4H25.9c-0.4,0-0.7-0.3-0.7-0.7s0.3-0.7,0.7-0.7h17.1c1.4,0,1.6-0.1,1.8-0.4c0.2-0.4,0.3-1.5-2-5.1
		c-2.1,1.4-4.7,2.2-7.3,2.2c-2.2,0-4.2-0.5-6-1.4c-0.3-0.2-0.5-0.6-0.3-1c0.2-0.3,0.6-0.5,1-0.3c1.5,0.8,3.4,1.3,5.3,1.3
		c2.6,0,5.2-0.9,7.1-2.4c0.2-0.1,0.4-0.2,0.6-0.1c0.2,0,0.4,0.2,0.5,0.3c0,0.1,0.1,0.2,0.2,0.4c1.6,2.6,3.1,5.4,2.1,6.9
		C45.2,48.3,44.3,48.4,42.9,48.4z"/>
	<path class="st0" d="M26.3,47c-0.2,0-0.4-0.1-0.6-0.3c-0.2-0.2-0.2-0.4-0.1-0.7c0.4-1,0.6-2.4,0.7-4.6c0-0.3,0.2-0.5,0.4-0.6
		c0.1,0,0.2-0.1,0.2-0.1c0.2-0.2,0.2-0.5,0.2-0.9c0-0.2,0.1-0.4,0.3-0.6c0.2-0.1,0.4-0.2,0.6-0.1c1.6,0.5,2.6,2.1,2.4,3.9
		C30.2,44.9,28.9,46.8,26.3,47C26.3,47,26.3,47,26.3,47z M27.7,41.9c-0.1,1.4-0.2,2.5-0.4,3.4c1.1-0.5,1.6-1.5,1.7-2.4
		c0.1-0.7-0.1-1.5-0.7-2c-0.1,0.2-0.2,0.4-0.3,0.5C28,41.7,27.8,41.8,27.7,41.9z"/>
	<path class="st0" d="M24.2,36.4C24.2,36.4,24.2,36.4,24.2,36.4c-2.6-0.3-3.9-2.1-4.1-3.9c-0.2-1.8,0.7-3.4,2.3-4
		c0.2-0.1,0.5,0,0.6,0.1c0.2,0.1,0.3,0.3,0.3,0.6c0,0.4,0.1,0.7,0.2,0.8c0.1,0.1,0.2,0.1,0.2,0.2c0.2,0.1,0.4,0.3,0.4,0.6
		c0.1,2.2,0.3,3.7,0.7,4.6c0.1,0.2,0,0.5-0.1,0.7C24.6,36.3,24.4,36.4,24.2,36.4z M22.1,30.3c-0.5,0.5-0.7,1.3-0.6,2
		c0.1,0.9,0.6,1.9,1.7,2.4c-0.2-0.9-0.3-2-0.4-3.4c-0.2-0.1-0.3-0.3-0.5-0.5C22.3,30.6,22.2,30.5,22.1,30.3z"/>
	<path class="st0" d="M46.4,36.4c-0.2,0-0.4-0.1-0.6-0.3c-0.2-0.2-0.2-0.4-0.1-0.7c0.4-1,0.6-2.4,0.7-4.6c0-0.3,0.2-0.5,0.4-0.6
		c0.1,0,0.2-0.1,0.2-0.1c0.2-0.2,0.2-0.5,0.2-0.9c0-0.2,0.1-0.4,0.3-0.6c0.2-0.1,0.4-0.2,0.6-0.1c1.6,0.5,2.6,2.1,2.4,3.9
		C50.4,34.2,49,36.1,46.4,36.4C46.5,36.4,46.4,36.4,46.4,36.4z M47.8,31.2c-0.1,1.4-0.2,2.5-0.4,3.4c1.1-0.5,1.6-1.5,1.7-2.4
		c0.1-0.7-0.1-1.4-0.7-2c-0.1,0.2-0.2,0.4-0.3,0.5C48.1,31,48,31.1,47.8,31.2z"/>
	<path class="st0" d="M15.2,55.3c-2.9,0-5.7-1-7.8-2.7c-3-2.4-4.6-6.3-4.6-11c0-0.2,0.1-0.5,0.3-0.6c0.2-0.1,0.5-0.1,0.7,0
		c1.8,0.9,9.8-3.3,11-4.4c0.3-0.3,0.7-0.2,1,0c0.9,0.9,8.9,5.1,11,4.4c0.2-0.1,0.5-0.1,0.7,0.1c0.2,0.1,0.3,0.3,0.3,0.6
		c0,4.7-1.7,8.6-4.7,11C20.8,54.3,18.1,55.3,15.2,55.3z M4.2,42.4c0.2,5,2.3,7.7,4,9.1c1.9,1.6,4.4,2.4,7,2.4c2.6,0,5-0.8,7-2.4
		c2.5-2,4-5.2,4.1-9.1c0,0,0,0,0,0c-3.1,0-9.1-3.2-11-4.5C13.4,39.2,7.3,42.6,4.2,42.4z"/>
	<path class="st0" d="M29.6,32.8c0.7,0,1.2-0.6,1.2-1.2c0-0.7-0.6-1.2-1.2-1.2c-0.7,0-1.2,0.6-1.2,1.2
		C28.3,32.2,28.9,32.8,29.6,32.8z"/>
	<path class="st0" d="M41.1,32.8c0.7,0,1.2-0.6,1.2-1.2c0-0.7-0.6-1.2-1.2-1.2s-1.2,0.6-1.2,1.2C39.8,32.2,40.4,32.8,41.1,32.8z"/>
	<path class="st0" d="M15.2,47.2c-0.8,0-2.1-0.1-3-1c-0.3-0.3-0.3-0.9,0-1.3c0.3-0.3,0.9-0.3,1.3,0c0.3,0.3,0.9,0.5,1.7,0.5
		c0.8,0,1.5-0.2,1.7-0.5c0.3-0.3,0.9-0.3,1.3,0c0.3,0.3,0.3,0.9,0,1.3C17.3,47.1,15.9,47.2,15.2,47.2z"/>
	<path class="st0" d="M9.4,44.2c0.7,0,1.2-0.6,1.2-1.2c0-0.7-0.6-1.2-1.2-1.2c-0.7,0-1.2,0.6-1.2,1.2C8.2,43.6,8.7,44.2,9.4,44.2z"
		/>
	<path class="st0" d="M20.9,44.2c0.7,0,1.2-0.6,1.2-1.2c0-0.7-0.6-1.2-1.2-1.2s-1.2,0.6-1.2,1.2C19.7,43.6,20.2,44.2,20.9,44.2z"/>
	<path class="st1" d="M20.5,31.1c0.6-1.7-0.5-2.8-2-3.4c0,0,2.3-7.5,1.1-8.6c-1.1-1.1-3-1.2-4.5-1.2c-1.6,0-3.5,0.1-4.5,1.2
		c-1,1.1,1.1,8.6,1.1,8.6c-1.4,0.6-2.6,1.6-2,3.4h0.1c-5.8,2.4-8,8-7,10C4.3,43.5,14.1,38,15.3,37c1,1,11,6.5,12.3,4.1
		C28.6,39.1,26.3,33.5,20.5,31.1z"/>
	<path class="st0" d="M26.2,42.4c-3.1,0-9.1-3.2-11-4.5c-2,1.4-8.6,4.9-11.5,4.5c-0.8-0.1-1.2-0.6-1.4-0.9c-0.5-0.9-0.4-2.3,0.1-3.8
		c0.8-2.3,3-5.2,6.6-6.9c-0.2-1,0-2.4,1.9-3.4c-0.8-3-1.9-7.6-0.8-8.7c1.2-1.3,3.1-1.5,5-1.5c1.9,0,3.8,0.2,5,1.4
		c1.2,1.2,0.1,5.8-0.8,8.8c1.9,1,2.1,2.4,1.9,3.4c3.7,1.7,5.9,4.7,6.8,7c0.5,1.5,0.6,2.8,0.1,3.7c-0.2,0.4-0.6,0.8-1.5,0.9
		C26.6,42.4,26.4,42.4,26.2,42.4z M10.4,30.6c0.1,0.1,0.2,0.2,0.2,0.4c0.1,0.3-0.1,0.7-0.4,0.8c-3.6,1.5-5.7,4.3-6.4,6.4
		c-0.5,1.3-0.4,2.2-0.2,2.6c0,0.1,0.2,0.1,0.4,0.2c2.5,0.4,9.8-3.6,10.8-4.5c0.3-0.3,0.7-0.2,1,0c0.8,0.8,8.2,4.8,10.7,4.5
		c0.2,0,0.4-0.1,0.5-0.2c0.2-0.4,0.2-1.2-0.2-2.5c-0.8-2.1-2.9-5-6.5-6.5c-0.3-0.1-0.5-0.5-0.4-0.9c0.3-0.7,0.3-1.7-1.6-2.5
		c-0.3-0.1-0.5-0.5-0.4-0.9c1.1-3.7,1.7-7.4,1.3-7.9c-0.9-0.9-2.5-1-4-1c-1.6,0-3.2,0.1-4,1c-0.4,0.6,0.2,4.2,1.3,8
		c0.1,0.3-0.1,0.7-0.4,0.8C10.4,29.1,10.2,29.9,10.4,30.6z"/>
	<path class="st0" d="M21.3,31.3l-1.3-0.4c0.2-0.6,0.1-1.1-0.2-1.5c-0.8-1.1-3.2-1.6-4.5-1.6s-3.7,0.5-4.5,1.6
		c-0.3,0.4-0.4,0.9-0.2,1.5l-1.3,0.4c-0.3-1-0.2-2,0.4-2.8c1.3-1.8,4.5-2.2,5.6-2.2s4.3,0.4,5.6,2.2C21.5,29.3,21.6,30.3,21.3,31.3z
		"/>
	<path class="st0" d="M4.1,42.4c-0.2,0-0.3,0-0.5,0c-0.9-0.1-1.3-0.6-1.5-0.9C1.4,40.3,1.8,38.1,3,36c0.9-1.5,4.4-6.6,12-6.6
		c8.8,0,13.3,6.8,13.3,10.5c0,0.7-0.1,1.2-0.4,1.6c-0.2,0.3-0.5,0.5-0.8,0.7c-2.7,1.1-10-2.9-12.1-4.3C13.2,39.2,7.2,42.4,4.1,42.4z
		 M15.1,30.8c-6.8,0-10,4.5-10.8,5.9c-1.1,1.8-1.3,3.4-0.9,4c0.1,0.1,0.3,0.2,0.5,0.2c2.6,0.3,10-3.7,10.7-4.5c0.3-0.3,0.7-0.3,1,0
		c1.1,1,9.1,5.2,11.1,4.4c0,0,0.1-0.1,0.2-0.1c0.2-0.2,0.2-0.5,0.2-0.9C27,36.7,22.9,30.8,15.1,30.8z"/>
	<path class="st0" d="M19.3,27.9L18,27.5c1.1-3.7,1.7-7.4,1.3-7.9c-0.9-0.9-2.5-1-4-1c-1.5,0-3.2,0.1-4,1c-0.4,0.6,0.2,4.2,1.3,8
		l-1.4,0.4c-0.8-2.9-2.1-8.1-1-9.3c1.2-1.3,3.2-1.5,5-1.5c1.9,0,3.8,0.2,5,1.4C21.5,19.9,20.2,25,19.3,27.9z"/>
</g>
</svg>
