<?xml version="1.0" encoding="utf-8"?>
<!-- Generator: Adobe Illustrator 23.0.1, SVG Export Plug-In . SVG Version: 6.00 Build 0)  -->
<svg version="1.1" id="Слой_1" xmlns="http://www.w3.org/2000/svg" xmlns:xlink="http://www.w3.org/1999/xlink" x="0px" y="0px"
	 viewBox="0 0 62.2 60" style="enable-background:new 0 0 62.2 60;" xml:space="preserve">
<style type="text/css">
	.st0{fill:none;}
	.st1{fill:#00A4B5;}
	.st2{fill:#003333;}
</style>
<g>
	<rect class="st0" width="62.2" height="60"/>
	<path class="st1" d="M43.4,20.3c0-6.5-5.6-11.7-12.4-11.6C24.3,8.7,18.9,14,19,20.4c0,4,2.2,7.4,5.4,9.5c1,0.6,1.6,1.7,1.6,2.9v2.2
		c0,0.4,0.3,0.7,0.7,0.7h8.8c0.4,0,0.7-0.3,0.7-0.7v-2.1c0-1.2,0.6-2.2,1.6-2.9C41.2,27.9,43.4,24.3,43.4,20.3z"/>
	<path class="st2" d="M61.3,20.1h-3v-1.2c0-1.1-0.9-2-2-2H43.8c-0.6-2-1.7-3.8-3.2-5.3c-2.5-2.5-6-3.9-9.6-3.8
		c-5.9,0.1-10.9,3.9-12.4,9.1H6c-1.1,0-2,0.9-2,2v1.2H0.9C0.4,20.1,0,20.5,0,21v34.7C0,58.1,1.9,60,4.3,60h53.6
		c2.4,0,4.3-1.9,4.3-4.3V21C62.2,20.5,61.8,20.1,61.3,20.1z M31,9.6c3.2,0,6.1,1.1,8.3,3.3c2,2,3.1,4.6,3.1,7.4
		c0,1.8-0.5,3.5-1.4,5.1c-0.3,0.4-0.1,1,0.3,1.3c0.4,0.3,1,0.1,1.3-0.3c0.8-1.3,1.3-2.8,1.5-4.3h9v19.2H35.5c-0.5,0-0.9,0.4-0.9,0.9
		c0,0.5,0.4,0.9,0.9,0.9h18.1c0.8,0,1.4-0.6,1.4-1.4V21.5c0-0.8-0.6-1.4-1.4-1.4h-9.3c0-0.5,0-0.9-0.1-1.4h12.2
		c0.1,0,0.2,0.1,0.2,0.2v35.6H32.1V42.4c1.3,0,2.4-1.1,2.4-2.4v-0.7C35.4,38.8,36,38,36,37v-0.5c0.7-0.2,1.2-0.8,1.2-1.5v-2.1
		c0-0.9,0.4-1.6,1.2-2.1c0.6-0.4,1.2-0.9,1.8-1.3c0.4-0.3,0.4-0.9,0.1-1.3c-0.3-0.4-0.9-0.4-1.3-0.1c-0.5,0.4-1,0.8-1.5,1.2
		c-1.1,0.7-1.8,1.8-2,3V18.3c0-0.2-0.1-0.4-0.2-0.6l-3.1-4c-0.2-0.3-0.5-0.4-0.9-0.4c-0.4,0-0.7,0.1-0.9,0.4l-3.2,4
		c-0.1,0.2-0.2,0.4-0.2,0.6v13.9c-0.2-1.2-0.9-2.3-2-3c-3.1-2-4.9-5.2-5-8.8C19.8,14.5,24.8,9.6,31,9.6z M28.7,34.7V22.2h1.6v12.5
		L28.7,34.7L28.7,34.7z M32.1,22.2h1.5v12.5h-1.5V22.2z M28.7,18.6l0.5-0.6h3.9l0.5,0.6v1.8h-4.9V18.6z M30.6,16.1l0.5-0.6l0.5,0.6
		H30.6z M34.1,36.5V37c0,0.3-0.3,0.6-0.6,0.6h-4.7c-0.3,0-0.6-0.3-0.6-0.6v-0.4H34.1z M29.6,39.4h3v0.5c0,0.3-0.3,0.6-0.6,0.6h-1.8
		c-0.3,0-0.6-0.3-0.6-0.6L29.6,39.4L29.6,39.4z M5.8,18.9c0-0.1,0.1-0.2,0.2-0.2h12.2c-0.1,0.5-0.1,0.9-0.1,1.4H8.7
		c-0.8,0-1.4,0.6-1.4,1.4v5.7c0,0.8,0.6,1.4,1.4,1.4h8.8c0.5,0,0.9-0.4,0.9-0.9s-0.4-0.9-0.9-0.9H9.1v-4.8h9
		c0.5,3.5,2.6,6.7,5.7,8.7c0.7,0.5,1.2,1.3,1.2,2.1V35c0,0.8,0.6,1.4,1.3,1.6V37c0,1,0.6,1.8,1.5,2.2V40c0,1.3,1.1,2.4,2.4,2.4v12.1
		H5.8V18.9z M60.4,55.7c0,1.4-1.1,2.5-2.5,2.5H4.3c-1.4,0-2.5-1.1-2.5-2.5V21.9H4V55c0,0.7,0.6,1.3,1.3,1.3h25.9H57
		c0.7,0,1.3-0.6,1.3-1.3V21.9h2.1V55.7z"/>
	<path class="st2" d="M17.5,44.5c-0.4-0.3-1-0.3-1.5,0c-0.5,0.3-0.8,0.8-0.8,1.3v2.8c0,0.5,0.3,1,0.8,1.3c0.2,0.1,0.5,0.2,0.7,0.2
		c0.3,0,0.5-0.1,0.8-0.2l2.2-1.4c0.4-0.3,0.7-0.7,0.7-1.3c0-0.5-0.3-1-0.7-1.3L17.5,44.5z M17,47.9v-1.5l1.2,0.7L17,47.9z"/>
	<path class="st2" d="M9.5,44.1v6.1c0,1.3,1.1,2.4,2.4,2.4h11.4c1.3,0,2.4-1.1,2.4-2.4v-6.1c0-1.3-1.1-2.4-2.4-2.4h-1.6
		c-0.5,0-0.9,0.4-0.9,0.9c0,0.5,0.4,0.9,0.9,0.9h1.6c0.3,0,0.5,0.2,0.5,0.5v6.1c0,0.3-0.2,0.5-0.5,0.5H11.8c-0.3,0-0.5-0.2-0.5-0.5
		v-6.1c0-0.3,0.2-0.5,0.5-0.5h6.1c0.5,0,0.9-0.4,0.9-0.9c0-0.5-0.4-0.9-0.9-0.9h-6.1C10.5,41.8,9.5,42.8,9.5,44.1z"/>
	<path class="st2" d="M35.5,47.1h2.8c0.5,0,0.9-0.4,0.9-0.9c0-0.5-0.4-0.9-0.9-0.9h-2.8c-0.5,0-0.9,0.4-0.9,0.9
		C34.6,46.7,35,47.1,35.5,47.1z"/>
	<path class="st2" d="M41.3,47.1h12.8c0.5,0,0.9-0.4,0.9-0.9c0-0.5-0.4-0.9-0.9-0.9H41.3c-0.5,0-0.9,0.4-0.9,0.9
		C40.4,46.7,40.8,47.1,41.3,47.1z"/>
	<path class="st2" d="M54.1,49.5h-2.8c-0.5,0-0.9,0.4-0.9,0.9c0,0.5,0.4,0.9,0.9,0.9h2.8c0.5,0,0.9-0.4,0.9-0.9
		C55,49.9,54.6,49.5,54.1,49.5z"/>
	<path class="st2" d="M48.3,49.5H35.5c-0.5,0-0.9,0.4-0.9,0.9c0,0.5,0.4,0.9,0.9,0.9h12.8c0.5,0,0.9-0.4,0.9-0.9
		C49.2,49.9,48.8,49.5,48.3,49.5z"/>
	<path class="st2" d="M8.2,33h1.8c0.5,0,0.9-0.4,0.9-0.9c0-0.5-0.4-0.9-0.9-0.9H8.2c-0.5,0-0.9,0.4-0.9,0.9C7.3,32.6,7.7,33,8.2,33z
		"/>
	<path class="st2" d="M13.2,33h7.6c0.5,0,0.9-0.4,0.9-0.9c0-0.5-0.4-0.9-0.9-0.9h-7.6c-0.5,0-0.9,0.4-0.9,0.9
		C12.3,32.6,12.7,33,13.2,33z"/>
	<path class="st2" d="M8.2,38h1.8c0.5,0,0.9-0.4,0.9-0.9c0-0.5-0.4-0.9-0.9-0.9H8.2c-0.5,0-0.9,0.4-0.9,0.9C7.3,37.6,7.7,38,8.2,38z
		"/>
	<path class="st2" d="M13.2,38h10.2c0.5,0,0.9-0.4,0.9-0.9c0-0.5-0.4-0.9-0.9-0.9H13.2c-0.5,0-0.9,0.4-0.9,0.9
		C12.3,37.6,12.7,38,13.2,38z"/>
	<path class="st2" d="M31.1,3.2c0.5,0,0.9-0.4,0.9-0.9V0.9C32,0.4,31.6,0,31.1,0c-0.5,0-0.9,0.4-0.9,0.9v1.4
		C30.2,2.8,30.6,3.2,31.1,3.2z"/>
	<path class="st2" d="M25.1,3.9c0.2,0.3,0.5,0.5,0.8,0.5c0.1,0,0.3,0,0.4-0.1c0.4-0.2,0.6-0.8,0.4-1.2l-0.6-1.2
		c-0.2-0.4-0.8-0.6-1.2-0.4c-0.4,0.2-0.6,0.8-0.4,1.2L25.1,3.9z"/>
	<path class="st2" d="M20.1,6.7l1.1,0.9c0.2,0.1,0.4,0.2,0.6,0.2c0.3,0,0.5-0.1,0.7-0.3c0.3-0.4,0.3-1-0.1-1.3l-1.1-0.9
		C20.9,5,20.3,5,20,5.4C19.6,5.8,19.7,6.4,20.1,6.7z"/>
	<path class="st2" d="M35.9,4.3c0.1,0.1,0.3,0.1,0.4,0.1c0.3,0,0.7-0.2,0.8-0.5l0.6-1.2c0.2-0.4,0-1-0.4-1.2s-1,0-1.2,0.4l-0.6,1.2
		C35.3,3.5,35.5,4.1,35.9,4.3z"/>
	<path class="st2" d="M40.5,7.8c0.2,0,0.4-0.1,0.6-0.2l1.1-0.9c0.4-0.3,0.5-0.9,0.1-1.3C42,5,41.4,5,41,5.3l-1.1,0.9
		c-0.4,0.3-0.5,0.9-0.1,1.3C40,7.6,40.2,7.8,40.5,7.8z"/>
</g>
</svg>
